<?xml version="1.0" encoding="utf-8"?>
<svg version="1.1" xmlns:xlink="http://www.w3.org/1999/xlink" width="46px" height="57px" xmlns="http://www.w3.org/2000/svg">
  <g transform="matrix(1 0 0 1 -19 -22 )">
    <path d="M 43.3492405789015 37.8918961883174  L 43.3434376146469 37.8919519860506  L 42.7229674350479 37.8919519860506  C 42.018847205013 37.9171731432126  41.46583652238 38.5037802651993  41.4821386713165 39.2081634315606  L 40.8617242894507 55.2521721639058  C 40.8454227481461 55.9565763019203  41.3984665899162 56.5431922185108  42.1026088509154 56.5683836094159  L 43.969599163034 56.5683836094159  C 44.6737857131508 56.5432219295629  45.2268715447101 55.9565630102577  45.2105395780296 55.2521163661726  L 44.5900693984307 39.2081634315606  C 44.6064025772694 38.5037587322743  44.0533830668747 37.9171174043568  43.3492405789015 37.8918961883174  Z M 22.1736867375763 32.1632042964255  C 22.1902778012534 31.1783796976094  21.4183142036762 30.3600859079858  20.4341940784656 30.319314190061  L 19.55867273932 30.319314190061  C 18.5745305917601 30.3600565065153  17.8025341219315 31.1783588925539  17.819124282476 32.1632042964255  L 16.9436586852659 54.7244935030514  C 16.9270667175646 55.7092972975718  17.6989974438848 56.5275824912829  18.6830955466434 56.5683836094159  L 21.3039125091543 56.5683836094159  C 22.2894370799165 56.5306783501072  23.0631634760486 55.7105422732719  23.0434609659983 54.7244935030514  L 22.1736867375763 32.1632042964255  Z M 16.1898320906713 23.425120418483  C 16.189813491444 23.4299765333131  16.1898041918047 23.4348326793085  16.1898041918047 23.4396888297566  C 16.1898041918047 25.5404296502838  17.8927911062382 27.2434165647173  19.9935319267655 27.2434165647173  C 22.0942727472927 27.2434165647173  23.7972596617262 25.5404296502838  23.7972596617262 23.4396888297566  C 23.7972596617262 23.4348326793085  23.797250362087 23.4299765333131  23.7972317628596 23.425120418483  C 23.7972317628596 21.3243794845958  22.0942448484261 19.6213925701623  19.9935040278989 19.6213925701623  C 17.8927632073716 19.6213925701623  16.1897762929381 21.3243794845958  16.1897762929381 23.4251203051231  Z M 18.7874929938971 17.9398738134263  C 19.1857886116727 17.8552543314892  19.5921381359662 17.8144098220238  19.9993069921534 17.8180674734089  C 20.389069478108 17.8179985639893  20.7777635805242 17.858824163715  21.1590059633827 17.9398738134263  C 21.2543275940357 17.9599126526155  21.3514702266476 17.9700130928466  21.4488754028262 17.9700130928466  C 22.2270462524504 17.9700130928466  22.8578783670808 17.3391809782162  22.8578783670808 16.561010128592  C 22.8578783670808 16.5606166913181  22.857878202291 16.5602232540495  22.8578778727114 16.5598298169137  C 22.8578778727114 7.6593747027027  21.5706254507411 0.440438402789883  19.9877010636443 0.440438402789883  C 18.4047766765475 0.440438402789883  17.0885652868352 7.6593747027027  17.0885652868352 16.5598298169137  C 17.0885649506705 16.5602271651321  17.0885647825881 16.5606245134775  17.0885647825881 16.5610218618381  C 17.0885647825881 17.3391927114623  17.7193968972185 17.9700248260927  18.4975677468427 17.9700248260927  C 18.5949919833652 17.9700248260927  18.6921535218953 17.9599204326028  18.7874929938971 17.9398738134263  Z M 25.3337882894508 25.1530071490846  C 25.2161228591957 25.5291380714909  25.0566419818315 25.8908850802381  24.8583362510898 26.2314646765475  C 24.6577984366563 26.5720762384776  24.4247808326755 26.8924894493132  24.1625391874455 27.1882274594595  C 23.9307921579013 27.446710032088  23.8026286355914 27.7816496417271  23.8026286355914 28.1288094407466  C 23.8026286355914 28.6335613998462  24.0726277394006 29.0997543925248  24.5104377192676 29.3509454786399  C 32.2164319302528 33.8041582144725  39.1106257018309 36.3089718012206  39.905017304272 34.9231806939843  C 40.6994089067132 33.537389586748  35.0924117035745 28.8291255797733  27.3806145283348 24.3760244394072  C 27.1660334715633 24.2526223159264  26.9228313086089 24.1876781887123  26.6752972422569 24.1876781887123  C 26.067127325524 24.1876781887123  25.5270009165517 24.5763447449453  25.3337882894508 25.1530071490846  Z M 15.8361305945946 27.1824244952049  C 15.5705849150909 26.8914559808139  15.3372953950486 26.5726145092617  15.1403335309503 26.2314646765475  C 14.9408746660071 25.8907032280362  14.7794866886757 25.5290444856873  14.6590785283348 25.1530071490846  C 14.4702742420901 24.5727505368832  13.9294193329834 24.1799686709812  13.3192187147374 24.1799686709812  C 13.0709212058201 24.1799686709812  12.8270328662149 24.2455826012151  12.6122522894507 24.3701657332171  C 4.90045511421098 28.8233784690497  -0.723950925893642 33.5431924952049  0.0878495135135076 34.9173777297297  C 0.899649952920658 36.2915629642546  7.77643483173496 33.7982995082825  15.4882320627724 29.3451983121186  C 15.9243749829195 29.092041819806  16.1927978761501 28.6258733004623  16.1927978761501 28.1215828520158  C 16.1927978761501 27.7754397939944  16.0659028474826 27.4413061832771  15.8361305945946 27.1824244952049  Z M 40.328298462075 32.9923578308631  C 40.328298462075 34.484632665565  41.5380262359171 35.6943604394071  43.030301070619 35.6943604394071  C 44.5225759053209 35.6943604394071  45.732303679163 34.484632665565  45.732303679163 32.9923578308631  C 45.732303679163 31.5000829961612  44.5225759053209 30.2903552223191  43.030301070619 30.2903552223191  C 41.5380262359171 30.2903552223191  40.328298462075 31.5000829961612  40.328298462075 32.9923578308631  Z " fill-rule="nonzero" fill="#aaaaaa" stroke="none" transform="matrix(1 0 0 1 19 22 )" />
  </g>
</svg>