<?xml version="1.0" encoding="utf-8"?>
<svg version="1.1" xmlns:xlink="http://www.w3.org/1999/xlink" width="27px" height="29px" xmlns="http://www.w3.org/2000/svg">
  <g transform="matrix(1 0 0 1 -51 -42 )">
    <path d="M 9.82289807846556 17.3830183783784  C 9.54742449615353 17.3461540820922  9.27703883815474 17.2780709486009  9.01695640104621 17.180082190061  C 8.75601804768844 17.0735546632637  8.50721598987428 16.93943611906  8.27479147689625 16.7800128334786  C 8.108588854937 16.6672203915822  7.91235261128478 16.6069204381727  7.71149085162132 16.6069204381727  C 7.30565188877738 16.6069204381727  6.93979725290114 16.8514567623261  6.78460286660855 17.2264500505667  C 4.37246920313863 23.0828070444638  3.26499691020053 28.1737314036617  4.30869250566696 28.6086185457716  C 5.35238810113339 29.0435056878814  8.15298519267655 24.6367724080209  10.5651188003487 18.7514006486487  C 10.6151528844846 18.6300902547291  10.6408993655312 18.5001416281439  10.6408993655312 18.3689180736721  C 10.6408993655312 17.886297640611  10.2972284570854 17.4720867472107  9.82289807846556 17.3830183783784  Z M 7.51516191804707 10.9121057646033  C 7.6916161256209 10.6947986306778  7.89416103334198 10.5000496671483  8.1182232048823 10.3322562789887  C 8.33764690043674 10.1576043939214  8.57706362064508 10.0096687722582  8.83142916129032 9.89156622842197  C 9.17807634881188 9.72244659001503  9.39797288352465 9.37049431047484  9.39797288352465 8.98479270986693  C 9.39797288352465 8.76347914328584  9.3252044457851 8.54830503071865  9.19087776809067 8.3724185945946  C 5.32923204184829 3.35682106364429  1.47333342632955 -0.151123222319093  0.57460023016565 0.538870877070618  C -0.32413296599826 1.22886497646033  2.08794489973845 5.85014031734961  5.95544938796861 10.8714850148213  C 6.14659310312476 11.1173310779131  6.44055305962627 11.2611343999578  6.7519630893001 11.2611343999578  C 7.04497537027724 11.2611343999578  7.3235137662791 11.1337522911435  7.51516191804707 10.9121057646033  Z M 14.3050140401046 12.1471315640802  C 14.3992483955428 12.4116132493451  14.4634469764465 12.6858516766261  14.4964000418483 12.9646791700087  C 14.5282004246295 13.2440302066795  14.5282004246295 13.526087540487  14.4964000418483 13.8054385771578  C 14.4944518248025 13.8309014124393  14.4934766505599 13.8564293571526  14.4934766505599 13.8819666148407  C 14.4934766505599 14.4359803712882  14.94259353753 14.8850972582583  15.4966072939775 14.8850972582583  C 15.5500072838744 14.8850972582583  15.6033220188463 14.8808332797068  15.6560432153444 14.8723459738448  C 21.9356255693112 14.0373895309503  26.8990522755013 12.448662179599  26.7482869677419 11.3295839581517  C 26.5975216599826 10.2105057367045  21.3905938692241 9.98430194943332  15.1168144795118 10.819314190061  C 14.6191784182198 10.8864913498155  14.2478817739759 11.3112780676164  14.2478817739759 11.813427866273  C 14.2478817739759 11.927095970238  14.2672009527817 12.0399373091684  14.3050140401046 12.1471315640802  Z " fill-rule="nonzero" fill="#aaaaaa" stroke="none" transform="matrix(1 0 0 1 51 42 )" />
  </g>
</svg>