<?xml version="1.0" encoding="utf-8"?>
<svg version="1.1" xmlns:xlink="http://www.w3.org/1999/xlink" width="55px" height="54px" xmlns="http://www.w3.org/2000/svg">
  <g transform="matrix(1 0 0 1 -19 -24 )">
    <path d="M 54.78515625 48.3428571428571  C 54.78515625 51.3  52.37890625 53.7  49.4140625 53  L 15.08203125 53  C 12.1171875 53.7  9.7109375 51.3  9.7109375 48.3428571428571  C 9.7109375 45.3857142857143  12.1171875 42.9857142857143  15.08203125 43  L 49.4140625 43  C 52.37890625 42.9857142857143  54.78515625 45.3857142857143  54.78515625 48.3428571428571  Z M 49.4140625 44  L 15.08203125 44  C 13.0625 44.6571428571429  11.4296875 46.2857142857143  11.4296875 48.3  C 11.4296875 50.3142857142857  13.0625 51.9428571428571  15.08203125 52  L 49.4140625 52  C 51.43359375 51.9428571428571  53.06640625 50.3142857142857  53.06640625 48.3  C 53.06640625 46.2857142857143  51.43359375 44.6571428571429  49.4140625 44  Z M 20.5390625 23.7  C 20.453125 23.7428571428571  20.41015625 23.7428571428571  20.32421875 23.7428571428571  C 20.109375 23.7428571428571  19.89453125 23.6571428571429  19.72265625 23.4857142857143  L 2.40625 6.25714285714286  C 1.76171875 5.57142857142857  1.375 4.71428571428571  1.375 3.77142857142857  C 1.375 2.82857142857143  1.71875 1.97142857142857  2.40625 1.32857142857143  C 3.78125 -0.0428571428571428  5.97265625 -0.0428571428571428  7.34765625 1.32857142857143  L 26.640625 20.5285714285714  C 26.8984375 20.7857142857143  26.94140625 21.1285714285714  26.8125 21.4714285714286  C 26.68359375 21.7714285714286  26.3828125 21.9857142857143  26.0390625 21.9857142857143  L 21.484375 21.9857142857143  L 21.140625 23.1  C 21.0546875 23.4  20.83984375 23.6142857142857  20.5390625 23.7  Z M 6.1015625 2.52857142857143  C 5.7578125 2.18571428571429  5.328125 2.01428571428571  4.85546875 2.01428571428571  C 4.3828125 2.01428571428571  3.953125 2.18571428571428  3.609375 2.52857142857143  C 3.265625 2.87142857142857  3.09375 3.3  3.09375 3.77142857142857  C 3.09375 4.24285714285714  3.265625 4.67142857142857  3.609375 5.01428571428571  L 19.89453125 21.2571428571429  L 19.98046875 20.9142857142857  C 20.06640625 20.5285714285714  20.41015625 20.3142857142857  20.796875 20.3142857142857  L 23.890625 20.3142857142857  L 6.1015625 2.52857142857143  Z M 49.4140625 43.8  C 49.4140625 44.2714285714286  49.02734375 44.6571428571429  48.5546875 44  L 15.94140625 44  C 15.46875 44.6571428571429  15.08203125 44.2714285714286  15.08203125 43.8  L 15.08203125 38.0142857142857  C 15.08203125 37.8857142857143  15.125 37.8  15.16796875 37.6714285714286  L 20.0234375 20.9142857142857  C 20.109375 20.5285714285714  20.453125 20.3142857142857  20.83984375 21  L 43.65625 21  C 44.04296875 20.3142857142857  44.38671875 20.5714285714286  44.47265625 20.9142857142857  L 49.328125 37.6714285714286  C 49.37109375 37.7571428571429  49.4140625 37.8857142857143  49.4140625 38.0142857142857  L 49.4140625 43.8  Z M 16.80078125 38.1428571428571  L 16.80078125 43  L 47.6953125 43  L 47.6953125 38.1428571428571  L 43.01171875 22  L 21.484375 22  L 16.80078125 38.1428571428571  Z M 43.828125 21.1285714285714  C 43.78515625 21.6  43.3984375 21.9857142857143  42.92578125 21.9857142857143  L 36.91015625 21.9857142857143  C 36.4375 21.9857142857143  36.05078125 21.6  36.05078125 21.1285714285714  L 36.05078125 16.6285714285714  C 36.05078125 14.7  37.640625 13.1142857142857  39.57421875 13.1142857142857  L 40.3046875 13.1142857142857  C 42.23828125 13.1142857142857  43.828125 14.7  43.828125 16.6285714285714  L 43.828125 21.1285714285714  Z M 37.7265625 20.2714285714286  L 37.76953125 20.2714285714286  L 42.06640625 20.2714285714286  L 42.06640625 16.6285714285714  C 42.06640625 15.6428571428571  41.25 14.8285714285714  40.26171875 14.8285714285714  L 39.53125 14.8285714285714  C 38.54296875 14.8285714285714  37.7265625 15.6428571428571  37.7265625 16.6285714285714  L 37.7265625 20.2714285714286  Z M 6 24.9  C 5.4140625 25.3714285714286  5.02734375 25.7571428571429  4.5546875 25.7571428571429  C 4.08203125 25.7571428571429  3.6953125 25.3714285714286  4 24.9  L 4 7.15714285714286  C 3.6953125 6.68571428571428  4.08203125 6.3  4.5546875 6.3  C 5.02734375 6.3  5.4140625 6.68571428571428  6 7.15714285714286  L 6 24.9  Z M 8.89453125 28.3285714285714  C 8.89453125 30.7285714285714  6.91796875 32.6571428571429  4.5546875 32.6571428571429  C 2.1484375 32.6571428571429  0.21484375 30.7285714285714  0.21484375 28.3285714285714  C 0.21484375 25.9285714285714  2.1484375 24  4.5546875 24  C 6.9609375 24  8.89453125 25.9285714285714  8.89453125 28.3285714285714  Z M 7.17578125 28.3714285714286  C 7.17578125 26.9142857142857  5.97265625 25.7571428571429  4.5546875 25.7571428571429  C 3.09375 25.7571428571429  1.93359375 26.9142857142857  1.93359375 28.3714285714286  C 1.93359375 29.7857142857143  3.09375 30.9857142857143  4.5546875 30.9857142857143  C 6.015625 30.9857142857143  7.17578125 29.8285714285714  7.17578125 28.3714285714286  Z M 7.21875 36.1714285714286  C 7.17578125 37.7142857142857  6.015625 38.8714285714286  4.5546875 38.8714285714286  C 3.09375 38.8714285714286  1.890625 37.6714285714286  1.890625 36.2142857142857  C 1.890625 35.7428571428571  2.27734375 35.3571428571429  2.75 35.3571428571429  C 3.22265625 35.3571428571429  3.609375 35.7428571428571  3.609375 36.2142857142857  C 3.609375 36.7285714285714  4.0390625 37.1571428571429  4.5546875 37.1571428571429  C 5.0703125 37.1571428571429  5.5 36.7285714285714  5.5 36.2142857142857  C 5.5 35.7  5.0703125 35.2714285714286  4.5546875 35.2714285714286  C 4.08203125 35.2714285714286  3.6953125 34.8857142857143  3.6953125 34.4142857142857  L 3.6953125 31.7571428571429  C 3.6953125 31.2857142857143  4.08203125 30.9  4.5546875 30.9  C 5.02734375 30.9  5.4140625 31.2857142857143  5.4140625 31.7571428571429  L 5.4140625 33.6857142857143  C 6.4453125 34.0285714285714  7.21875 35.0142857142857  7.21875 36.1714285714286  Z M 37.68359375 17.4857142857143  C 37.51171875 17.7857142857143  37.2109375 17.9571428571429  36.91015625 17.9571428571429  C 36.78125 17.9571428571429  36.65234375 17.9142857142857  36.5234375 17.8714285714286  L 6.05859375 2.44285714285714  C 5.62890625 2.22857142857143  5.45703125 1.71428571428571  5.671875 1.28571428571428  C 5.88671875 0.857142857142855  6.40234375 0.685714285714284  6.83203125 0.899999999999998  L 37.296875 16.3285714285714  C 37.7265625 16.5428571428571  37.8984375 17.0571428571429  37.68359375 17.4857142857143  Z M 31.0234375 34.2428571428571  C 31.06640625 34.5  30.8515625 34.6714285714286  30.63671875 34.6714285714286  L 20.92578125 34.6714285714286  C 20.796875 34.6714285714286  20.66796875 34.6285714285714  20.58203125 34.5  C 20.49609375 34.3714285714286  20.49609375 34.2428571428571  20.49609375 34.1142857142857  L 23.203125 24.7285714285714  C 23.24609375 24.5571428571429  23.41796875 24.4285714285714  23.6328125 24.4285714285714  L 30.59375 24.4285714285714  C 30.8515625 24.4285714285714  31.0234375 24.6  31.0234375 24.8571428571429  L 31.0234375 34.2428571428571  Z M 23.9765625 25.3285714285714  L 21.52734375 33.8142857142857  L 30.20703125 33.8142857142857  L 30.20703125 25.3285714285714  L 23.9765625 25.3285714285714  Z M 43.87109375 34.5428571428571  C 43.78515625 34.6285714285714  43.65625 34.6714285714286  43.52734375 34.6714285714286  L 33.859375 34.6714285714286  C 33.6015625 34.6714285714286  33.4296875 34.5  33.4296875 34.2428571428571  L 33.4296875 24.9  C 33.4296875 24.6428571428571  33.6015625 24.4714285714286  33.859375 24.4714285714286  L 40.8203125 24.4714285714286  C 40.9921875 24.4714285714286  41.1640625 24.6  41.25 24.7714285714286  L 43.95703125 34.1571428571429  C 44 34.2857142857143  43.95703125 34.4142857142857  43.87109375 34.5428571428571  Z M 34.2890625 25.2857142857143  L 34.2890625 33.8142857142857  L 42.96875 33.8142857142857  L 40.51953125 25.2857142857143  L 34.2890625 25.2857142857143  Z M 48.984375 38.0142857142857  C 48.984375 38.2285714285714  48.76953125 38.4428571428571  48.5546875 38  L 15.94140625 38  C 15.68359375 38.4428571428571  15.51171875 38.2714285714286  15.51171875 38.0142857142857  C 15.51171875 37.7571428571429  15.68359375 37.5857142857143  15.94140625 37  L 48.5546875 37  C 48.8125 37.5857142857143  48.984375 37.7571428571429  48.984375 38.0142857142857  Z M 19.29296875 48.2571428571429  C 19.29296875 49.5428571428571  18.21875 50.6142857142857  16.9296875 50.6142857142857  C 15.640625 50.6142857142857  14.56640625 49.5428571428571  14.56640625 48.2571428571429  C 14.56640625 46.9714285714286  15.640625 45.9  16.9296875 45.9  C 18.21875 45.9  19.29296875 46.9714285714286  19.29296875 48.2571428571429  Z M 18.43359375 48.2142857142857  C 18.43359375 47.4  17.74609375 46.7142857142857  16.9296875 46.7142857142857  C 16.11328125 46.7142857142857  15.42578125 47.4  15.42578125 48.2142857142857  C 15.42578125 49.0285714285714  16.11328125 49.7142857142857  16.9296875 49.7142857142857  C 17.74609375 49.7142857142857  18.43359375 49.0285714285714  18.43359375 48.2142857142857  Z M 25.609375 48.2571428571429  C 25.609375 49.5428571428571  24.53515625 50.6142857142857  23.24609375 50.6142857142857  C 21.95703125 50.6142857142857  20.8828125 49.5428571428571  20.8828125 48.2571428571429  C 20.8828125 46.9714285714286  21.95703125 45.9  23.24609375 45.9  C 24.53515625 45.9  25.609375 46.9714285714286  25.609375 48.2571428571429  Z M 24.75 48.2142857142857  C 24.75 47.4  24.0625 46.7142857142857  23.24609375 46.7142857142857  C 22.4296875 46.7142857142857  21.7421875 47.4  21.7421875 48.2142857142857  C 21.7421875 49.0285714285714  22.4296875 49.7142857142857  23.24609375 49.7142857142857  C 24.0625 49.7142857142857  24.75 49.0285714285714  24.75 48.2142857142857  Z M 31.8828125 48.2571428571429  C 31.8828125 49.5428571428571  30.8515625 50.6142857142857  29.51953125 50.6142857142857  C 28.23046875 50.6142857142857  27.15625 49.5428571428571  27.15625 48.2571428571429  C 27.15625 46.9714285714286  28.23046875 45.9  29.51953125 45.9  C 30.80859375 45.9  31.8828125 46.9714285714286  31.8828125 48.2571428571429  Z M 31.0234375 48.2142857142857  C 31.0234375 47.4  30.37890625 46.7142857142857  29.51953125 46.7142857142857  C 28.703125 46.7142857142857  28.015625 47.4  28.015625 48.2142857142857  C 28.015625 49.0285714285714  28.703125 49.7142857142857  29.51953125 49.7142857142857  C 30.3359375 49.7142857142857  31.0234375 49.0285714285714  31.0234375 48.2142857142857  Z M 38.19921875 48.2571428571429  C 38.19921875 49.5428571428571  37.125 50.6142857142857  35.8359375 50.6142857142857  C 34.546875 50.6142857142857  33.47265625 49.5428571428571  33.47265625 48.2571428571429  C 33.47265625 46.9714285714286  34.546875 45.9  35.8359375 45.9  C 37.125 45.9  38.19921875 46.9714285714286  38.19921875 48.2571428571429  Z M 37.33984375 48.2142857142857  C 37.33984375 47.4  36.65234375 46.7142857142857  35.8359375 46.7142857142857  C 35.01953125 46.7142857142857  34.33203125 47.4  34.33203125 48.2142857142857  C 34.33203125 49.0285714285714  35.01953125 49.7142857142857  35.8359375 49.7142857142857  C 36.65234375 49.7142857142857  37.33984375 49.0285714285714  37.33984375 48.2142857142857  Z M 44.47265625 48.2571428571429  C 44.47265625 49.5428571428571  43.44140625 50.6142857142857  42.109375 50.6142857142857  C 40.8203125 50.6142857142857  39.74609375 49.5428571428571  39.74609375 48.2571428571429  C 39.74609375 46.9714285714286  40.8203125 45.9  42.109375 45.9  C 43.3984375 45.9  44.47265625 46.9714285714286  44.47265625 48.2571428571429  Z M 43.61328125 48.2142857142857  C 43.61328125 47.4  42.96875 46.7142857142857  42.109375 46.7142857142857  C 41.29296875 46.7142857142857  40.60546875 47.4  40.60546875 48.2142857142857  C 40.60546875 49.0285714285714  41.29296875 49.7142857142857  42.109375 49.7142857142857  C 42.92578125 49.7142857142857  43.61328125 49.0285714285714  43.61328125 48.2142857142857  Z M 50.7890625 48.2571428571429  C 50.7890625 49.5428571428571  49.71484375 50.6142857142857  48.42578125 50.6142857142857  C 47.13671875 50.6142857142857  46.0625 49.5428571428571  46.0625 48.2571428571429  C 46.0625 46.9714285714286  47.13671875 45.9  48.42578125 45.9  C 49.71484375 45.9  50.7890625 46.9714285714286  50.7890625 48.2571428571429  Z M 49.9296875 48.2142857142857  C 49.9296875 47.4  49.2421875 46.7142857142857  48.42578125 46.7142857142857  C 47.609375 46.7142857142857  46.921875 47.4  46.921875 48.2142857142857  C 46.921875 49.0285714285714  47.609375 49.7142857142857  48.42578125 49.7142857142857  C 49.2421875 49.7142857142857  49.9296875 49.0285714285714  49.9296875 48.2142857142857  Z " fill-rule="nonzero" fill="#aaaaaa" stroke="none" transform="matrix(1 0 0 1 19 24 )" />
  </g>
</svg>