<?xml version="1.0" encoding="utf-8"?>
<svg version="1.1" xmlns:xlink="http://www.w3.org/1999/xlink" width="53px" height="74px" xmlns="http://www.w3.org/2000/svg">
  <g transform="matrix(1 0 0 1 -18 -14 )">
    <path d="M 32 73.9606875  L 32 53  L 21 53  L 21 73.9606875  L 16 73.9606875  L 16 52.38159375  C 15.7964810449862 52.1279598258739  15.6284656535135 51.8270683584587  15.5313043478261 51.50053125  L 13.9493695652174 46.2106875  L 10.6 46.2106875  C 9.69363990575216 46.2103594855636  8.87164774046714 45.676866734912  8.49958695652174 44.84746875  L 0.203934782608695 26.34746875  C 0.0703953717199769 26.0493463210023  0.0013490695360515 25.7262013586636  0.0013490695360515 25.3993433536997  C 0.0013490695360515 24.1227135459606  1.03221869396316 23.0875911468829  2.30434782608696 23.08684375  L 11.7325869565217 23.08684375  L 24.0885 12.7534375  L 24.0885 7.36878125  C 23.0057071994563 6.61215380780045  22.3602391304348 5.37180399381941  22.3602391304348 4.0477059699702  C 22.3602391304348 1.81267862299871  24.1656995414432 0.000830969970201049  26.392847826087 0.000830969970201049  C 28.6199961107307 0.000830969970201049  30.4254565217391 1.81267862299871  30.4254565217391 4.0477059699702  C 30.4254565217391 5.37180399381941  29.7799884527176 6.61215380780045  28.6971956521739 7.36878125  L 28.6971956521739 12.7534375  L 41.0531086956522 23.0856875  L 50.481347826087 23.0856875  C 51.75432522975 23.0856874775292  52.7860168931834 24.1210289935455  52.7860168931834 25.3981874775292  C 52.7860168931834 25.725472718273  52.7167900166166 26.0490302361237  52.5829130434783 26.34746875  L 44.2872608695652 44.84746875  C 43.915371350899 45.6777005353567  43.0927432634505 46.2117659012679  42.1856956521739 46.21184375  L 38.8363260869565 46.21184375  L 37.2555434782609 51.50053125  C 37.1553043478261 51.83584375  36.9847826086956 52.133  36 52.38159375  L 36 73.9606875  L 32 73.9606875  Z M 12.0909130434783 41  L 37.1218913043478 41  L 40.6959347826087 41.5856875  L 46.9176739130435 28  L 5.86917391304348 28  L 12.0909130434783 41  Z M 26.392847826087 16.8465625  L 18.9313695652174 23  L 33.8543260869565 23  L 26.392847826087 16.8465625  Z M 18.760847826087 46  L 19.452152173913 48  L 33.3335434782609 48  L 34.024847826087 46  L 18.760847826087 46  Z " fill-rule="nonzero" fill="#aaaaaa" stroke="none" transform="matrix(1 0 0 1 18 14 )" />
  </g>
</svg>