<?xml version="1.0" encoding="utf-8"?>
<svg version="1.1" xmlns:xlink="http://www.w3.org/1999/xlink" width="53px" height="54px" xmlns="http://www.w3.org/2000/svg">
  <g transform="matrix(1 0 0 1 -20 -24 )">
    <path d="M 52.4668989361702 16.7200342105263  C 52.1252885638298 14.8775684210526  50.627545212766 12.3667815789474  49.7283071808511 11.4337894736842  L 39.8980053191489 1.24676052631579  C 38.6396781914894 -0.0571263157894738  36.5959361702128 -0.0571263157894738  35.3346489361702 1.24676052631579  C 34.0732912234042 2.55363157894737  34.0732912234042 4.67284736842105  35.3346489361702 5.97680526315789  L 39.2615119680851 10.0474815789474  L 0.00747074468085068 40.5436973684211  L 2.04247340425532 43.357452631579  L 26.2985013297872 24.5140105263158  L 17.3645478723404 53.5327578947368  L 19.530852393617 53.5327578947368  L 22.7073989361702 43.2162  L 30.9172539893617 43.2162  L 30.9172539893617 43.1514710526316  L 34.1142393617021 53.5327578947368  L 36.2892832446808 53.5327578947368  L 27.1510119680851 23.8517289473684  L 41.6876715425532 12.5609684210526  L 45.1649507978723 16.1695184210526  C 46.1108457446809 17.1496184210526  48.8932752659574 18.6979263157895  50 18.8568710526316  L 50 53.6004  L 53 53.6004  L 53 16.7198921052632  L 52.4668284574468 16.7198921052632  Z M 30.1553789893617 40.6791947368421  L 23.4870345744681 40.6791947368421  L 26.8212420212766 29.8504894736842  L 30.1554494680851 40.6791947368421  Z " fill-rule="nonzero" fill="#aaaaaa" stroke="none" transform="matrix(1 0 0 1 20 24 )" />
  </g>
</svg>