<?xml version="1.0" encoding="utf-8"?>
<svg version="1.1" xmlns:xlink="http://www.w3.org/1999/xlink" width="1078px" height="300px" xmlns="http://www.w3.org/2000/svg">
  <g transform="matrix(1 0 0 1 -548 -3807 )">
    <path d="M 549 3827  A 19 19 0 0 1 568 3808 L 1606 3808  A 19 19 0 0 1 1625 3827 L 1625 4087  A 19 19 0 0 1 1606 4106 L 568 4106  A 19 19 0 0 1 549 4087 L 549 3827  Z " fill-rule="nonzero" fill="#f2f2f2" stroke="none" fill-opacity="0" />
    <path d="M 548.5 3827  A 19.5 19.5 0 0 1 568 3807.5 L 1606 3807.5  A 19.5 19.5 0 0 1 1625.5 3827 L 1625.5 4087  A 19.5 19.5 0 0 1 1606 4106.5 L 568 4106.5  A 19.5 19.5 0 0 1 548.5 4087 L 548.5 3827  Z " stroke-width="1" stroke-dasharray="1,1" stroke="#bdbaba" fill="none" stroke-dashoffset="0.5" />
  </g>
</svg>