<?xml version="1.0" encoding="utf-8"?>
<svg version="1.1" xmlns:xlink="http://www.w3.org/1999/xlink" width="128px" height="128px" xmlns="http://www.w3.org/2000/svg">
  <g transform="matrix(1 0 0 1 -844 -3107 )">
    <path d="M 128 64  C 128 28.8  99.2 0  64 0  C 28.8 0  0 28.8  0 64  C 0 99.2  28.8 128  64 128  C 99.2 128  128 99.2  128 64  Z M 122.666666625 64  C 122.666666625 96.266666625  96.266666625 122.666666625  64 122.666666625  C 31.733333375 122.666666625  5.333333375 96.266666625  5.333333375 64  C 5.333333375 31.733333375  31.733333375 5.333333375  64 5.333333375  C 96.266666625 5.333333375  122.666666625 31.733333375  122.666666625 64  Z M 84 73.333333375  C 91.2 68  91.2 60  84 55.2  L 62.666666625 41.066666625  C 55.466666625 36.266666625  49.33333325 39.466666625  50 48.266666625  L 50 80.266666625  C 49.333333375 89.066666625  55.2 92.266666625  62.666666625 87.466666625  L 84 73.333333375  Z " fill-rule="nonzero" fill="#ffffff" stroke="none" transform="matrix(1 0 0 1 844 3107 )" />
  </g>
</svg>