<?xml version="1.0" encoding="utf-8"?>
<svg version="1.1" xmlns:xlink="http://www.w3.org/1999/xlink" width="20px" height="20px" xmlns="http://www.w3.org/2000/svg">
  <g transform="matrix(1 0 0 1 -554 -2817 )">
    <path d="M 19.9642828409091 12.9045656439394  C 19.9641535606061 14.7678060606061  18.156250530303 14.7678060606061  17.2243070833333 14.7678060606061  C 15.7448081060606 14.6581656439394  14.3210343560606 14.1103515151515  13.1704565530303 13.1238464772727  C 10.9234747348485 13.6168404166667  8.78716765151515 14.329503030303  6.65047272727273 15.2062383712121  C 4.95195151515152 18.2199272727273  3.36307071969697 19.7536  1.99321212121212 19.7536  C 1.7193696969697 19.7536  1.39057776515152 19.6986504924242  1.17155556818182 19.5344484848485  C 0.568791931818183 19.260476780303  0.240129318181819 18.6577131439394  0.240129280303032 18.0553373863636  C 0.240129280303032 17.5620848484848  0.349511098484849 16.1919676893939  5.55497375 13.9461495075758  C 6.75972526515151 11.7543757575758  7.69115151515152 9.50778181818182  8.45837575757576 7.15206465909091  C 7.80092121212121 5.83715556818182  6.3766303030303 2.60444446969697  7.36274746212121 0.961131325757572  C 7.69115151515152 0.358238409090905  8.34899393939394 0.0295757575757543  9.06126867424243 0.0843959469696933  C 9.6090828030303 0.0843959469696933  10.156896969697 0.358367651515148  10.4853010227273 0.796670719696965  C 11.1979636363636 1.78304647727272  11.1430141666667 3.86466265151515  10.211329280303 6.93304242424242  C 11.088323219697 8.57674344696969  12.2389009848485 10.0557252651515  13.6085010227273 11.3163313257576  C 14.7592081060606 11.097050530303  15.9093979924242 10.9324606060606  17.0602343560606 10.9324606060606  C 19.6352323484849 10.9871515151515  20.0185858712121 12.1930666666667  19.9642828409091 12.9045656439394  Z M 3.85619393939394 16.5755798106061  C 3.03414950757576 16.9045010227273  2.37669496212121 17.4529616287879  1.88370102272727 18.1648484848485  L 2.04816162878788 18.1092525378788  C 2.81512727272727 17.8356687121212  3.41776162878788 17.2879838636364  3.85619393939394 16.5755798106061  Z M 9.11608890151515 4.57706666666667  C 9.44449295454545 3.64564041666667  9.44449295454545 2.65913534090909  9.17065049242424 1.72783837121212  L 9.00593132575758 1.72783837121212  C 8.95124041666667 1.72783837121212  8.84172931818182 1.72783837121212  8.78703837121212 1.78291715909091  C 8.56775757575758 2.71408484848485  8.73260606060606 3.70046060606061  9.11608890151515 4.57706666666667  Z M 11.7455192045455 12.3571393939394  C 10.9233454545455 11.5347070833333  10.1566384090909 10.6035393939394  9.55426261363636 9.67237170454545  L 9.49918382575758 9.78214140151515  L 9.44436363636363 9.72719193181818  C 8.95111109848485 10.9870222348485  8.40342625 12.2478868939394  7.80053333333333 13.4527676893939  L 7.91017375 13.3982060606061  L 7.91017375 13.507329280303  C 9.11608890151515 13.0687676515151  10.4306101136364 12.6860606060606  11.6362666666667 12.4122181818182  L 11.5810585984848 12.3571393939394  L 11.7455192045455 12.3571393939394  Z M 18.3200646590909 13.0145939393939  C 18.3200646590909 12.8497454545455  18.1010424242424 12.5764201893939  17.0054141287879 12.5764201893939  C 16.5124201893939 12.5764201893939  16.0741171590909 12.5764201893939  15.5808646590909 12.6861898863636  C 16.1285495075758 12.9595151515152  16.6764929545455 13.068896969697  17.2241777651515 13.1239757575758  C 17.6084363636364 13.1789252651515  17.9914020075758 13.1239757575758  18.3200646590909 13.0145939393939  Z " fill-rule="nonzero" fill="#000000" stroke="none" transform="matrix(1 0 0 1 554 2817 )" />
  </g>
</svg>