<?xml version="1.0" encoding="utf-8"?>
<svg version="1.1" xmlns:xlink="http://www.w3.org/1999/xlink" width="120px" height="120px" xmlns="http://www.w3.org/2000/svg">
  <g transform="matrix(1 0 0 1 -289 -1212 )">
    <path d="M 24.7041223404255 5  L 95.2360372340426 5  C 106.595744680851 4.14893617021277  115.851063829787 13.4042553191489  115 24.7639627659574  L 115 95.2360372340426  C 115.851063829787 106.595744680851  106.595744680851 115.851063829787  95.2360372340426 115  L 24.7041223404255 115  C 13.344414893617 115.851063829787  4.08909574468085 106.595744680851  4 95.2360372340426  L 4 24.7639627659574  C 4.08909574468085 13.4042553191489  13.344414893617 4.14893617021276  24.7041223404255 5  Z M 120 24.7639627659574  C 120 11.1702127659574  108.829787234043 0  95.2360372340426 0  L 24.7041223404255 0  C 11.1103723404255 0  0 11.1702127659574  0 24.7639627659574  L 0 95.2360372340426  C 0 108.829787234043  11.1702127659574 120  24.7639627659574 120  L 95.2360372340426 120  C 108.829787234043 120  120 108.829787234043  120 95.2360372340426  L 120 24.7639627659574  Z " fill-rule="nonzero" fill="#555555" stroke="none" transform="matrix(1 0 0 1 289 1212 )" />
  </g>
</svg>