<?xml version="1.0" encoding="utf-8"?>
<svg version="1.1" xmlns:xlink="http://www.w3.org/1999/xlink" width="66px" height="60px" xmlns="http://www.w3.org/2000/svg">
  <g transform="matrix(1 0 0 1 -316 -1242 )">
    <path d="M 65.4833776595745 25.4720744680851  L 48.7679521276596 1  L 16.6635638297872 1  L 0.446808510638299 25.4720744680851  L 33.3789893617021 59.4913563829787  L 65.4833776595745 25.4720744680851  Z M 47.6908244680851 19.9767287234043  C 48.5784574468085 20.8045212765957  48.6382978723404 22.1509308510638  47.8105053191489 23.1083776595745  L 34.655585106383 37.6595744680851  C 34.0771276595745 38.1682180851064  33.5086436170213 38.4275265957447  32.8703457446809 38.4275265957447  C 32.2320478723404 38.4275265957447  31.6535904255319 38.1682180851064  31.2147606382979 37.7293882978723  L 18.2593085106383 23.1083776595745  C 17.4315159574468 22.2107712765958  17.561170212766 20.8144946808511  18.4488031914894 19.9767287234043  C 19.3464095744681 19.1489361702128  20.7426861702128 19.2785904255319  21.5804521276596 20.1662234042553  L 33.0099734042553 32.8723404255319  L 44.5591755319149 20.1063829787234  C 45.3869680851064 19.2087765957447  46.7333776595745 19.1489361702128  47.6908244680851 19.9767287234043  Z " fill-rule="nonzero" fill="#555555" stroke="none" transform="matrix(1 0 0 1 316 1242 )" />
  </g>
</svg>