<?xml version="1.0" encoding="utf-8"?>
<svg version="1.1" xmlns:xlink="http://www.w3.org/1999/xlink" width="54px" height="60px" xmlns="http://www.w3.org/2000/svg">
  <g transform="matrix(1 0 0 1 -1281 -1242 )">
    <path d="M 38.8184840425532 37.8989361702128  C 38.8384308510638 37.9288563829787  38.8683510638298 37.9587765957447  38.8982712765958 37.9886968085106  L 39.6761968085106 38.7566489361702  L 39.9155585106383 38.9860372340426  L 40.5837765957447 38.3377659574468  L 40.9328457446808 37.9886968085106  C 43.7054521276596 35.1662234042553  48.2433510638298 35.126329787234  51.0658244680851 37.8989361702128  C 51.0957446808511 37.9288563829787  51.125664893617 37.9587765957447  51.155585106383 37.9886968085106  C 53.9481382978723 40.8311170212766  53.9780585106383 45.3789893617021  51.2353723404255 48.2613031914894  L 39.9255319148936 59.2220744680851  L 28.6057180851064 48.2613031914894  C 25.8530585106383 45.3789893617021  25.8929521276596 40.8311170212766  28.6855053191489 37.9886968085106  C 31.4581117021276 35.1662234042553  35.9960106382979 35.126329787234  38.8184840425532 37.8989361702128  Z M 1.92686170212767 49.2885638297872  C 1.92686170212767 49.2885638297872  13.3962765957447 35.8942819148936  13.3962765957447 35.8942819148936  C 14.8623670212766 36.811835106383  16.438164893617 37.5498670212766  18.1037234042553 38.0984042553191  L 5.72672872340426 52  L 28.2367021276596 52  L 28.2367021276596 57  L 5.72672872340426 57  C 2.96409574468085 57.5565159574468  0.720079787234049 55.3125  0.720079787234049 52.5498670212766  C 0.720079787234049 51.3530585106383  1.14893617021277 50.1961436170213  1.92686170212767 49.2885638297872  Z M 32.2460106382979 41.5093085106383  C 31.3783244680851 42.406914893617  31.3484042553192 43.813164893617  32.1761968085107 44.750664893617  L 39.9255319148936 52.250664893617  L 47.6748670212766 44.7406914893617  L 47.8244680851064 44.5511968085106  C 48.4926861702128 43.6136968085106  48.4029255319149 42.3271276595745  47.6050531914894 41.499335106383  C 46.7772606382979 40.6416223404255  45.4109042553192 40.6216755319149  44.563164893617 41.4494680851064  C 44.5432180851064 41.469414893617  44.5332446808511 41.4793882978723  44.5132978723404 41.499335106383  L 43.8849734042553 42.1176861702128  L 39.9255319148936 45.907579787234  L 35.9660904255319 42.1176861702128  L 35.3377659574468 41.499335106383  C 34.5099734042553 40.6416223404255  33.1436170212766 40.6216755319149  32.2958776595745 41.4494680851064  C 32.2759308510638 41.4793882978723  32.2659574468085 41.4893617021277  32.2460106382979 41.5093085106383  Z M 8.19015957446808 17.4734042553192  C 8.19015957446808 8.24800531914894  15.6702127659574 0.777925531914896  24.8956117021277 0.777925531914896  C 34.1210106382979 0.777925531914896  41.5910904255319 8.25797872340426  41.5910904255319 17.4734042553191  C 41.5910904255319 26.688829787234  34.1110372340425 34.1688829787234  24.8956117021277 34.1688829787234  C 15.6801861702128 34.1688829787234  8.19015957446808 26.6988031914894  8.19015957446808 17.4734042553192  Z M 36.5844414893617 17.4734042553192  C 36.5844414893617 11.0206117021277  31.3484042553192 5.78457446808511  24.8956117021277 5.78457446808511  C 18.4428191489362 5.78457446808511  13.2067819148936 11.0206117021277  13.2067819148936 17.4734042553192  C 13.2067819148936 23.9261968085106  18.4428191489362 29.1622340425532  24.8956117021277 29.1622340425532  C 31.3484042553192 29.1622340425532  36.5844414893617 23.9261968085106  36.5844414893617 17.4734042553192  Z " fill-rule="nonzero" fill="#555555" stroke="none" transform="matrix(1 0 0 1 1281 1242 )" />
  </g>
</svg>