<?xml version="1.0" encoding="utf-8"?>
<svg version="1.1" xmlns:xlink="http://www.w3.org/1999/xlink" width="66px" height="52px" xmlns="http://www.w3.org/2000/svg">
  <g transform="matrix(1 0 0 1 -316 -1637 )">
    <path d="M 22.2287234042553 51.3324468085106  C 24.7121010638298 51.3324468085106  27.1954787234043 51.3324468085106  29.6788563829787 51.3324468085106  C 30.6761968085106 51.3324468085106  31.4840425531915 50.5246010638298  32 49.5372340425532  L 32 33.4501329787234  L 26.4474734042553 30.6875  L 21 34.2480053191489  L 21 49.5372340425532  C 20.4235372340426 50.5246010638298  21.2413563829787 51.3324468085106  22.2287234042553 51.3324468085106  Z M 0.506648936170212 33.6994680851064  L 24.8716755319149 19.2878989361702  L 26.2878989361702 18.4401595744681  L 27.7340425531915 19.2380319148936  L 35.0445478723404 23.2573138297872  L 54.592420212766 6.53191489361701  L 51.8198138297872 3.3503989361702  L 58.6515957446808 2.01396276595743  L 65.4833776595745 0.667553191489347  L 63.2293882978723 7.25997340425531  L 60.9753989361702 13.8424202127659  L 58.3922872340426 10.8803191489362  L 37.2785904255319 28.9421542553192  L 35.7626329787234 30.2386968085106  L 34.0172872340426 29.28125  L 26.3976063829787 25.092420212766  L 3.44880319148936 38.6761968085106  L 0.506648936170212 33.6994680851064  Z M 6.68018617021277 51.3324468085106  L 14.1402925531915 51.3324468085106  C 15.1276595744681 51.3324468085106  15.9454787234043 50.5246010638298  16 49.5372340425532  L 16 36.9109042553192  L 4.88497340425532 43.4534574468085  L 4.88497340425532 49.5372340425532  C 4.875 50.5246010638298  5.69281914893617 51.3324468085106  6.68018617021277 51.3324468085106  Z M 37.7772606382979 51.3324468085106  C 40.2606382978723 51.3324468085106  42.7440159574468 51.3324468085106  45.2273936170213 51.3324468085106  C 46.2147606382979 51.3324468085106  47.0325797872341 50.5246010638298  47.0325797872341 49.5372340425532  C 47.0325797872341 41.9973404255319  47.0325797872341 34.467420212766  47.0325797872341 26.9375  C 47.0325797872341 26.8477393617021  47.0226063829787 26.748005319149  47.0126329787234 26.6682180851064  L 36.1017287234043 35.9933510638298  L 36 35.9235372340426  L 36 49.5472074468085  C 35.9720744680851 50.5246010638298  36.779920212766 51.3324468085106  37.7772606382979 51.3324468085106  Z M 51 49.5372340425532  C 51.5206117021277 50.5246010638298  52.3284574468085 51.3324468085106  53.3257978723404 51.3324468085106  L 60.7759308510638 51.3324468085106  C 61.7732712765958 51.3324468085106  62.5811170212766 50.5246010638298  62 49.5372340425532  L 62 22.2599734042553  L 58.1230053191489 17.1535904255319  L 51 22.7985372340426  L 51 49.5372340425532  Z " fill-rule="nonzero" fill="#555555" stroke="none" transform="matrix(1 0 0 1 316 1637 )" />
  </g>
</svg>