<?xml version="1.0" encoding="utf-8"?>
<svg version="1.1" xmlns:xlink="http://www.w3.org/1999/xlink" width="64px" height="66px" xmlns="http://www.w3.org/2000/svg">
  <g transform="matrix(1 0 0 1 -802 -1239 )">
    <path d="M 43.0904255319149 65.3836436170213  C 43.0106382978723 65.3836436170213  42.8510638297872 65.3636968085106  42.7712765957447 65.1941489361702  L 42.7513297872341 65.1542553191489  L 34.0545212765958 50.1442819148936  L 29.9454787234043 50.1442819148936  L 21.2386968085106 65.1742021276596  L 21.2287234042553 65.1941489361702  C 21.1589095744681 65.3238031914893  20.999335106383 65.3836436170213  20.8597074468085 65.3836436170213  C 20.75 65.3836436170213  20.6602393617021 65.3537234042553  20.6103723404255 65.2938829787234  C 19.0545212765958 63.3789893617021  16.1023936170213 59.968085106383  13.0206117021277 56.656914893617  L 12.8610372340426 56.4873670212766  L 12.6316489361702 56.4375  C 9.19082446808512 55.6595744680851  5.80984042553194 55.0113031914893  3.3464095744681 54.5425531914893  C 2.47872340425533 54.3730053191489  1.72074468085108 54.2333776595744  1.11236702127661 54.1136968085106  L 1.07247340425533 54.1037234042553  C 1.03257978723406 54.09375  0.902925531914907 54.0837765957447  0.823138297872354 53.9242021276595  C 0.753324468085118 53.7746010638297  0.743351063829802 53.595079787234  0.813164893617035 53.4454787234042  L 10.2978723404255 36.8497340425531  L 10.1083776595745 36.4906914893617  C 8.67220744680853 33.7380319148936  7.86436170212767 30.7559840425531  7.63497340425534 27.375  L 7.63497340425534 27.3251329787234  L 7.62500000000002 27.2752659574468  C 7.52526595744683 26.7666223404255  7.52526595744683 26.3577127659574  7.52526595744683 25.7892287234042  C 7.52526595744683 20.2739361702127  9.40026595744683 15.0478723404255  12.9408244680851 10.689494680851  C 17.7081117021277 4.376329787234  24.8191489361702 0.626329787233999  32 0.626329787233999  C 38.2632978723404 0.626329787233999  44.5166223404256 3.31914893617017  49.1742021276596 8.00664893617017  C 53.7918882978724 12.6642287234042  56.4148936170213 18.8876329787234  56.3550531914894 25.0910904255319  L 56.3550531914894 25.7992021276595  C 56.3550531914894 29.0305851063829  55.4973404255319 32.501329787234  53.7519946808511 36.4208776595744  L 53.592420212766 36.7699468085106  L 56.4647606382979 41.6369680851063  C 56.8537234042553 42.3351063829787  56.594414893617 43.3025265957447  55.8763297872341 43.78125  C 55.6170212765958 43.9308510638298  55.3277925531915 44.0106382978723  55.0385638297873 44.0106382978723  C 54.4800531914894 44.0106382978723  53.9813829787234 43.7114361702128  53.6722074468085 43.2027925531915  L 51.7373670212766 39.8118351063829  L 51.0591755319149 40.689494680851  C 47.7779255319149 44.908244680851  43.2101063829787 47.9501329787234  38.2134308510638 49.2566489361702  L 37.2559840425532 49.5059840425532  L 43.6090425531915 60.2772606382978  L 44.2872340425532 59.5392287234042  C 44.3171542553192 59.5093085106383  47 56.5970744680851  49.6030585106383 53.5551861702127  C 52.2859042553192 52.9867021276596  54.9886968085107 52.4581117021276  57.6914893617022 51.9893617021276  L 58.6788563829788 51.8198138297872  L 58.2300531914894 50.9222074468085  C 57.9308510638298 50.3238031914893  58.0704787234043 49.7353723404255  58.5990691489362 49.3663563829787  C 58.8683510638298 49.2666223404255  59.0777925531915 49.1170212765957  59.2273936170213 49.0073138297872  C 59.2872340425532 48.9674202127659  59.3470744680851 48.9175531914893  59.4069148936171 48.8976063829787  L 59.4468085106383 48.8776595744681  C 59.5964095744681 48.7978723404255  59.7559840425532 48.7480053191489  59.9255319148937 48.7480053191489  C 60.3244680851064 48.7480053191489  60.653590425532 48.9973404255319  60.8331117021277 49.4361702127659  L 60.8530585106383 49.4860372340425  L 63.186835106383 53.4554521276596  C 63.2566489361703 53.6050531914893  63.2466755319149 53.7845744680851  63.1768617021277 53.9242021276596  C 63.0970744680851 54.0837765957447  62.967420212766 54.1037234042553  62.9275265957447 54.1037234042553  L 62.8876329787234 54.1136968085106  C 62.2892287234043 54.2333776595745  61.561170212766 54.3730053191489  60.7234042553192 54.532579787234  C 58.2699468085107 55.0113031914894  54.9188829787234 55.6595744680851  51.3683510638298 56.4375  L 51.1289893617022 56.4873670212766  L 50.9694148936171 56.6768617021276  C 48.0073138297873 60.1176861702128  45.0452127659575 63.5385638297872  43.4394946808511 65.2539893617021  C 43.3397606382979 65.3337765957447  43.220079787234 65.3836436170213  43.0904255319149 65.3836436170213  Z M 6.17885638297873 52.0791223404256  C 6.22872340425532 52.0890957446808  10.1382978723404 52.7573138297872  14.2772606382979 53.6449468085106  C 16.7706117021277 56.5871010638298  19.5731382978723 59.6090425531915  19.593085106383 59.6389627659575  L 20.2613031914894 60.3670212765958  L 26.7340425531915 49.625664893617  L 25.7965425531915 49.3563829787234  C 20.6502659574468 47.9002659574468  16.1622340425532 44.938164893617  12.811170212766 40.7692819148936  L 12.1329787234043 39.9315159574468  L 5.1216755319149 51.8996010638298  L 6.17885638297873 52.0791223404256  Z M 53.2034574468085 25.2107712765957  C 53.1934840425532 13.7912234042553  43.1801861702128 3.7779255319149  31.7706117021277 3.7779255319149  C 20.5605053191489 3.7779255319149  10.3377659574468 14.3796542553192  10.3377659574468 26.0186170212766  C 10.3377659574468 37.3783244680851  20.1515957446809 46.9827127659574  31.7706117021277 46.9827127659574  C 43.5890957446808 46.9827127659574  53.2034574468085 37.21875  53.2034574468085 25.2107712765957  Z M 25.8763297872341 38.2559840425532  C 25.5970744680851 38.4355053191489  25.2081117021277 38.5452127659574  24.7992021276596 38.5452127659574  C 24.3503989361702 38.5452127659574  23.8517287234043 38.375664893617  23.2632978723404 38.0265957446809  C 22.4255319148936 37.3982712765958  22.0664893617021 36.4707446808511  22.2559840425532 35.5033244680851  L 23.4527925531915 28.7912234042553  L 18.5458776595745 24.0039893617021  C 17.8577127659575 23.3158244680851  17.6283244680851 22.3085106382979  17.9375 21.3710106382979  C 18.2466755319149 20.4534574468085  19.0744680851064 19.7453457446808  19.9521276595745 19.6456117021277  L 26.7839095744681 18.688164893617  L 29.7759308510638 12.5844414893617  C 30.1648936170213 11.7067819148936  31.0625 11.1682180851064  32.1196808510638 11.1682180851064  C 33.1369680851064 11.1682180851064  33.9448138297872 11.6668882978723  34.4634308510638 12.6043882978723  L 37.4454787234043 18.688164893617  L 44.2672872340426 19.6456117021277  C 45.2147606382979 19.7353723404255  45.9627659574468 20.3836436170213  46.2918882978723 21.3710106382979  C 46.6010638297873 22.3085106382979  46.3716755319149 23.3257978723404  45.6835106382979 24.0139627659574  L 40.7865691489362 28.7912234042553  L 41.9833776595745 35.4933510638298  C 42.1828457446809 36.4807180851064  41.8038563829787 37.3982712765957  40.9660904255319 38.0365691489362  C 40.5372340425532 38.3557180851064  40.0485372340426 38.5152925531915  39.5 38.5152925531915  C 39.0711436170213 38.5152925531915  38.6422872340426 38.4155585106383  38.2034574468085 38.2260638297872  L 32.0099734042553 35.0046542553191  L 25.8962765957447 38.2460106382979  L 25.8763297872341 38.2559840425532  Z M 31.9800531914894 32.0126329787234  L 39.0013297872341 35.6429521276596  L 37.625 27.8936170212766  L 43.25 22.3882978723404  L 35.4906914893617 21.2613031914894  L 31.9900265957447 14.1303191489362  L 28.4893617021277 21.2613031914894  L 20.7300531914894 22.3882978723404  L 26.3550531914894 27.8936170212766  L 24.9787234042553 35.6429521276596  L 31.9800531914894 32.0126329787234  Z " fill-rule="nonzero" fill="#555555" stroke="none" transform="matrix(1 0 0 1 802 1239 )" />
  </g>
</svg>