<?xml version="1.0" encoding="utf-8"?>
<svg version="1.1" xmlns:xlink="http://www.w3.org/1999/xlink" width="70px" height="70px" xmlns="http://www.w3.org/2000/svg">
  <g transform="matrix(1 0 0 1 -1273 -1628 )">
    <path d="M 15.0432180851064 34.7107712765957  C 15.0432180851064 27.7293882978723  18.9228723404255 21.3364361702128  25.1163563829787 17.8457446808511  C 31.3098404255319 14.3550531914894  38.8796542553191 14.3550531914894  45.0731382978723 17.8457446808511  C 51.2765957446809 21.3364361702128  55.1462765957447 27.7293882978723  54.9567819148936 34.7107712765957  C 54.9567819148936 41.6921542553191  51.0771276595745 48.0851063829787  45.0731382978723 51.5757978723404  C 38.8796542553192 55.0664893617021  31.3098404255319 55.0664893617021  25.1163563829787 51.5757978723404  C 18.9128989361702 48.0851063829787  15.0432180851064 41.6821808510638  15.0432180851064 34.7107712765957  Z M 38.6801861702128 63.9727393617021  C 40.0365691489362 63.9727393617021  41.2034574468085 65.1396276595745  41.2034574468085 66.4960106382979  C 41.2034574468085 67.8523936170213  40.0365691489362 69.0192819148936  38.6801861702128 69.0192819148936  L 31.1203457446808 69.0192819148936  C 29.7639627659574 69.0192819148936  28.5970744680851 67.8523936170213  28.5970744680851 66.4960106382979  C 28.5970744680851 65.1396276595745  29.7639627659574 63.9727393617021  31.1203457446808 63.9727393617021  L 38.6801861702128 63.9727393617021  Z M 35 13.0086436170213  C 33.6436170212766 13.0086436170213  32.4767287234043 11.8417553191489  32.4767287234043 10.4853723404255  L 32.4767287234043 3.31449468085106  C 32.4767287234043 1.95811170212766  33.8331117021277 0.990691489361698  35.1894946808511 0.990691489361698  C 36.5458776595745 0.990691489361698  37.5132978723404 1.95811170212766  37.5132978723404 3.31449468085106  L 37.5132978723404 10.6748670212766  C 37.5232712765957 11.8417553191489  36.3563829787234 13.0086436170213  35 13.0086436170213  Z M 18.9128989361702 19.6010638297872  C 17.9454787234043 20.1795212765957  16.5890957446809 20.1795212765957  15.6216755319149 19.4015957446809  L 10.3856382978723 14.3650265957447  C 9.41821808510638 13.1981382978723  9.41821808510638 11.6522606382979  10.5751329787234 10.874335106383  C 11.5425531914894 10.0964095744681  12.8989361702128 10.0964095744681  13.8663563829787 10.874335106383  L 19.1023936170213 16.1103723404255  C 20.0698138297872 17.0777925531915  19.8803191489362 18.6336436170213  18.9128989361702 19.6010638297872  Z M 2.63630319148936 32.3869680851064  L 10.1961436170213 32.3869680851064  C 11.5525265957447 32.3869680851064  12.719414893617 33.5538563829787  12.719414893617 34.9102393617021  C 12.719414893617 36.2666223404255  11.5525265957447 37.4335106382979  10.1961436170213 37.4335106382979  L 2.63630319148936 37.4335106382979  C 1.27992021276596 37.2440159574468  0.113031914893618 36.2666223404255  0.113031914893618 34.9102393617021  C 0.113031914893618 33.5538563829787  1.27992021276596 32.3869680851064  2.63630319148936 32.3869680851064  Z M 67.3636968085106 32.3869680851064  C 68.720079787234 32.3869680851064  69.8869680851064 33.5538563829787  69.8869680851064 34.9102393617021  C 69.8869680851064 36.2666223404255  68.720079787234 37.4335106382979  67.3636968085106 37.4335106382979  L 59.8038563829787 37.4335106382979  C 58.4474734042553 37.4335106382979  57.280585106383 36.2666223404255  57.280585106383 34.9102393617021  C 57.280585106383 33.5538563829787  58.4474734042553 32.3869680851064  59.8038563829787 32.3869680851064  L 67.3636968085106 32.3869680851064  Z M 59.6143617021277 14.1655585106383  L 54.3783244680851 19.4015957446809  C 53.4109042553192 20.3690159574468  51.8550531914894 20.3690159574468  50.8876329787234 19.4015957446809  C 49.9202127659575 18.4341755319149  49.9202127659575 16.8783244680851  50.8876329787234 15.9109042553192  L 56.123670212766 10.6748670212766  C 57.0910904255319 9.70744680851065  58.6469414893617 9.70744680851065  59.6143617021277 10.6748670212766  C 60.5817819148936 11.6422872340426  60.5817819148936 13.1981382978723  59.6143617021277 14.1655585106383  Z M 26.8617021276596 56  L 43.1382978723404 56  C 44.4946808510638 56.6123670212766  45.6615691489362 57.7792553191489  45.6615691489362 59.1356382978723  C 45.6615691489362 60.4920212765958  44.4946808510638 61.6589095744681  43.1382978723404 61  L 26.8617021276596 61  C 25.5053191489362 61.6589095744681  24.3384308510638 60.4920212765958  24.3384308510638 59.1356382978723  C 24.3384308510638 57.7792553191489  25.5053191489362 56.6123670212766  26.8617021276596 56  Z " fill-rule="nonzero" fill="#555555" stroke="none" transform="matrix(1 0 0 1 1273 1628 )" />
  </g>
</svg>