<?xml version="1.0" encoding="utf-8"?>
<svg version="1.1" xmlns:xlink="http://www.w3.org/1999/xlink" width="68px" height="64px" xmlns="http://www.w3.org/2000/svg">
  <g transform="matrix(1 0 0 1 -800 -1631 )">
    <path d="M 20.0571808510638 24.5997340425532  C 22.1715425531915 26.7140957446809  24.6948138297872 27.9807180851064  27.6469414893617 27.9807180851064  C 35.655585106383 27.9807180851064  43.6642287234043 19.124335106383  43.6642287234043 19.124335106383  L 44.9308510638298 17.8577127659574  L 60.1103723404255 33.875  C 63.0625 30.9228723404255  67.7001329787234 25.4474734042553  67.7001329787234 18.6954787234043  C 68.1190159574468 14.0578457446808  66.0146276595745 9.83909574468084  62.2147606382979 6.04920212765957  C 50.8351063829787 -5.7593085106383  39.0265957446808 5.20146276595744  38.6077127659574 5.63031914893617  L 20.0571808510638 24.5997340425532  Z M 17.9428191489362 35.5704787234043  C 18.3716755319149 35.5704787234043  18.8005319148936 35.5704787234043  19.219414893617 35.1515957446809  C 19.6382978723404 34.7327127659574  19.6382978723404 34.3038563829787  19.6382978723404 33.8849734042553  C 19.6382978723404 33.0372340425532  19.219414893617 32.6183510638298  18.7905585106383 32.1994680851064  C 17.9428191489362 31.3517287234043  17.1050531914894 31.3517287234043  16.2573138297872 31.3517287234043  C 15.8384308510638 31.3517287234043  14.9906914893617 31.7706117021277  14.5718085106383 32.1994680851064  L 7.82978723404256 40.6269946808511  C 6.98204787234043 41.8936170212766  6.98204787234043 43.5791223404255  8.24867021276597 44.4168882978723  C 9.0964095744681 45.2646276595745  10.3530585106383 45.2646276595745  11.2007978723404 44.4168882978723  C 11.2007978723404 44.4168882978723  11.2007978723404 44.4168882978723  11.2007978723404 43.9980053191489  L 17.9428191489362 35.5704787234043  Z M 24.6948138297872 41.8936170212766  C 24.6948138297872 41.4747340425532  24.6948138297872 41.0558510638298  25.123670212766 41.0558510638298  C 25.123670212766 40.6369680851064  25.5425531914894 39.7892287234043  25.5425531914894 39.3703457446808  C 25.5425531914894 38.5226063829787  25.123670212766 38.1037234042553  24.6948138297872 37.6848404255319  C 23.8470744680851 36.8371010638298  23.4281914893617 36.8371010638298  22.5904255319149 36.8371010638298  C 22.1715425531915 36.8371010638298  21.7426861702128 36.8371010638298  21.3238031914894 37.2559840425532  C 21.3238031914894 37.2559840425532  21.3238031914894 37.2559840425532  21.3238031914894 37.6748670212766  L 14.5817819148936 46.1023936170213  C 14.5817819148936 46.5212765957447  14.1628989361702 46.5212765957447  13.7340425531915 46.9501329787234  C 13.3151595744681 48.2167553191489  13.3151595744681 49.4833776595745  14.5817819148936 50.3211436170213  C 15.000664893617 50.7400265957447  15.8484042553192 50.7400265957447  16.686170212766 50.7400265957447  C 17.1050531914894 50.7400265957447  17.5339095744681 50.3211436170213  17.9527925531915 50.3211436170213  L 24.6948138297872 41.8936170212766  Z M 31.0179521276596 46.53125  C 31.436835106383 45.2646276595745  31.436835106383 43.9980053191489  30.1702127659575 43.1602393617021  C 29.751329787234 42.7413563829787  29.3224734042553 42.7413563829787  28.4847074468085 42.7413563829787  C 28.4847074468085 42.7413563829787  28.4847074468085 42.7413563829787  28.0658244680851 42.7413563829787  C 27.6469414893617 42.7413563829787  27.218085106383 43.1602393617021  26.7992021276596 43.1602393617021  L 20.0571808510638 51.5877659574468  L 19.6382978723404 52.0066489361702  C 19.219414893617 52.4255319148936  19.219414893617 53.2732712765958  19.219414893617 53.6921542553192  C 19.219414893617 54.5398936170213  19.6382978723404 54.9587765957447  20.0671542553191 55.3776595744681  C 20.4860372340426 55.7965425531915  21.3337765957447 56.2253989361702  22.1715425531915 55.7965425531915  C 22.5904255319149 55.7965425531915  23.438164893617 55.3776595744681  23.8570478723404 54.9488031914894  C 23.8570478723404 54.9488031914894  23.8570478723404 54.529920212766  24.2759308510638 54.529920212766  L 31.0179521276596 46.53125  Z M 37.7699468085106 52.0166223404255  C 37.7699468085106 51.1688829787234  38.188829787234 50.75  38.188829787234 49.9022606382979  C 38.188829787234 49.0545212765958  37.7699468085106 48.6356382978723  37.3410904255319 48.2167553191489  C 36.9222074468085 47.7978723404255  36.0844414893617 47.7978723404255  35.655585106383 47.7978723404255  C 34.8078457446809 47.7978723404255  34.3889627659574 48.2167553191489  33.970079787234 48.6456117021277  C 33.970079787234 48.6456117021277  33.970079787234 49.0644946808511  33.5511968085106 49.0644946808511  L 26.8091755319149 57.4920212765958  C 26.8091755319149 57.4920212765958  26.8091755319149 57.4920212765958  26.8091755319149 57.9109042553192  C 26.3902925531915 58.3297872340426  26.3902925531915 58.7586436170213  26.3902925531915 59.1775265957447  C 26.3902925531915 60.0252659574468  26.8091755319149 60.4441489361702  27.2380319148936 60.8630319148936  C 28.5046542553192 61.7107712765957  30.1901595744681 61.7107712765957  31.0279255319149 60.4441489361702  L 37.7699468085106 52.0166223404255  Z M 40.7121010638298 58.3397606382979  L 38.188829787234 55.8065159574468  L 34.3989361702128 60.4441489361702  L 36.5033244680851 62.5485372340426  C 36.9222074468085 62.967420212766  37.7699468085107 63.3962765957447  38.6077127659574 63.3962765957447  C 39.4554521276596 63.3962765957447  40.2932180851064 62.9773936170213  40.7121010638298 62.5485372340426  C 41.1309840425532 62.1296542553192  41.5598404255319 61.281914893617  41.5598404255319 60.4441489361702  C 41.5598404255319 59.5964095744681  41.1409574468085 58.7586436170213  40.7121010638298 58.3397606382979  Z M 60.1103723404255 38.9514627659574  L 49.9973404255319 27.9807180851064  C 49.9973404255319 27.9807180851064  49.9973404255319 27.561835106383  49.9973404255319 27.9807180851064  L 44.5119680851064 22.0764627659575  C 41.9787234042553 25.0285904255319  35.2367021276596 30.9328457446809  27.6469414893617 30.9328457446809  C 23.4281914893617 30.9328457446809  19.6382978723404 29.2473404255319  16.686170212766 25.4474734042553  L 15.8384308510638 24.1808510638298  L 31.4468085106383 8.59242021276596  L 29.7613031914894 6.90691489361702  C 29.7613031914894 6.90691489361702  24.2759308510638 1.42154255319149  17.1150265957447 1.42154255319149  C 12.8962765957447 1.42154255319149  8.6875 3.10704787234043  4.8876329787234 6.90691489361702  C 1.51662234042553 9.85904255319149  0.25 13.6489361702128  0.25 17.4488031914894  C 0.25 25.0385638297872  6.57313829787234 31.780585106383  8.67752659574468 34.313829787234  L 12.0485372340426 30.095079787234  C 12.8962765957447 28.8284574468085  14.5817819148936 27.9906914893617  15.8384308510638 27.9906914893617  C 17.5239361702128 27.9906914893617  18.7905585106383 28.4095744680851  20.0571808510638 29.2573138297872  C 21.3238031914894 30.1050531914894  22.1615691489362 31.7905585106383  22.1615691489362 33.0472074468085  L 22.1615691489362 33.4660904255319  C 23.4281914893617 33.4660904255319  25.1136968085106 33.8849734042553  25.9514627659574 34.7327127659575  C 27.218085106383 35.5804521276596  28.0558510638298 37.2659574468085  28.0558510638298 38.5226063829787  L 28.0558510638298 38.9414893617021  C 29.3224734042553 38.9414893617021  31.0079787234043 39.3603723404255  31.8457446808511 40.2081117021277  C 33.1123670212766 41.0558510638298  33.9501329787234 42.7413563829787  33.9501329787234 43.9980053191489  C 35.6356382978723 43.5791223404255  37.3211436170213 43.9980053191489  38.5877659574468 45.2646276595745  C 39.8543882978723 46.1123670212766  40.6921542553191 47.7978723404255  40.6921542553191 49.0545212765957  C 40.6921542553191 50.3111702127659  40.6921542553191 51.5877659574468  39.844414893617 52.844414893617  L 42.7965425531915 55.7965425531915  C 43.2154255319149 56.2154255319149  44.063164893617 56.6442819148936  44.9009308510638 56.6442819148936  C 45.7486702127659 56.6442819148936  46.5864361702128 56.2253989361702  47.0053191489362 55.7965425531915  C 47.4242021276596 55.3676861702128  47.8530585106383 54.5299202127659  47.8530585106383 53.6921542553191  C 47.8530585106383 52.8543882978723  47.4341755319149 52.0066489361702  47.0053191489362 51.5877659574468  C 47.0053191489362 51.5877659574468  47.0053191489362 51.5877659574468  46.5864361702128 51.1688829787234  L 36.0844414893617 40.2081117021277  C 35.6655585106383 39.3603723404255  35.6655585106383 38.5226063829787  36.0844414893617 38.1037234042553  C 36.5033244680851 37.6848404255319  37.3510638297872 37.6848404255319  38.188829787234 38.1037234042553  C 38.188829787234 38.1037234042553  38.6077127659574 38.1037234042553  38.6077127659574 38.5226063829787  L 49.1496010638298 49.4833776595745  C 50.4162234042553 50.3311170212766  52.1017287234043 50.3311170212766  53.3683510638298 49.4833776595745  C 54.6349734042553 48.6356382978723  54.6349734042553 46.9501329787234  53.7872340425532 45.6934840425532  L 53.3683510638298 45.2746010638298  L 42.8264627659575 34.3038563829787  C 42.407579787234 33.4561170212766  42.407579787234 32.6183510638298  42.8264627659575 32.1994680851064  C 43.2453457446809 31.780585106383  44.093085106383 31.780585106383  44.5119680851064 31.780585106383  C 44.9308510638298 31.780585106383  44.9308510638298 31.780585106383  45.3597074468085 32.1994680851064  L 55.9015957446809 43.1602393617021  C 55.9015957446809 43.1602393617021  55.9015957446809 43.5791223404255  56.3204787234043 43.5791223404255  C 57.5871010638298 44.4268617021277  58.8537234042553 44.4268617021277  60.1103723404255 43.1602393617021  C 60.5292553191489 42.7413563829787  60.9581117021277 41.8936170212766  60.9581117021277 41.0558510638298  C 60.9581117021277 40.2081117021277  60.5392287234043 39.3703457446808  60.1103723404255 38.9514627659574  Z " fill-rule="nonzero" fill="#555555" stroke="none" transform="matrix(1 0 0 1 800 1631 )" />
  </g>
</svg>