<?xml version="1.0" encoding="utf-8"?>
<svg version="1.1" xmlns:xlink="http://www.w3.org/1999/xlink" width="11px" height="11px" xmlns="http://www.w3.org/2000/svg">
  <g transform="matrix(1 0 0 1 -279 -976 )">
    <path d="M 284.5 976  C 287.58 976  290 978.42  290 981.5  C 290 984.58  287.58 987  284.5 987  C 281.42 987  279 984.58  279 981.5  C 279 978.42  281.42 976  284.5 976  Z " fill-rule="nonzero" fill="#ffffff" stroke="none" />
    <path d="M 284.5 976.5  C 287.3 976.5  289.5 978.7  289.5 981.5  C 289.5 984.3  287.3 986.5  284.5 986.5  C 281.7 986.5  279.5 984.3  279.5 981.5  C 279.5 978.7  281.7 976.5  284.5 976.5  Z " stroke-width="1" stroke="#d9001b" fill="none" />
  </g>
</svg>