<?xml version="1.0" encoding="utf-8"?>
<svg version="1.1" xmlns:xlink="http://www.w3.org/1999/xlink" width="117px" height="96px" xmlns="http://www.w3.org/2000/svg">
  <g transform="matrix(1 0 0 1 -1213 -690 )">
    <path d="M 39.4838641051095 92.1904832467153  C 39.6362004554745 90.6714309138686  38.1171481226277 89.1538156379562  36.1425237956204 89.1538157313869  L 29.0057082394161 89.1538157313869  C 17.0119853063431 89.1538157313869  7.28915181313868 79.4309822381824  7.28915181313868 67.4372593051095  C 7.28915181313868 55.4435363720366  17.0119853063431 45.7207028788321  29.0057082394161 45.7207028788321  L 32.8026206364963 45.7207028788321  C 32.9549569868613 45.7207028788321  34.1693366189781 45.8730392291971  35.3894647591241 44.506323340146  C 36.6095928992701 43.1396074510949  36.1482723970803 41.9194792175182  36.1482723036496 40.4061753927007  C 36.1482723036496 22.334194919708  50.8789124671533 7.60355475620438  68.798556589781 7.60355475620438  C 77.2977765839416 7.60499190656935  85.0425004846715 10.7983072233577  90.8126000583942 16.1157091036496  C 91.4205084029197 16.7236174481752  91.2681720525547 16.7236174481752  92.0269795970803 17.3300886423358  C 92.7872243854014 18.3863833226277  93.8449562160584 18.9899803094891  95.2174207065693 18.9899803094891  C 97.2189457114941 18.9629133290332  98.8349296793981 17.3469293611292  98.861996659854 15.3454043562044  C 98.861996659854 14.1310247240876  98.2540883153285 13.0675443854015  97.3429443270073 12.1564003970803  C 96.7350359824817 11.5484920525547  96.8873723328467 11.7008284029197  96.1285646948905 11.0929200583942  C 88.9903120817518 4.26365159708029  79.4233002043796 0.163503649635039  68.7928079883212 0.163503649635039  C 47.3794872058394 0.163503649635039  29.9168522277372 17.019667340146  28.8533718890511 38.1283154218978  C 12.9180946135317 38.1283154218978  0 51.0464100354295  0 66.9816873109489  C 0 82.9169645864683  12.9180946135317 95.8350592  28.8533718890511 95.8350592  L 35.8392881518248 95.8350592  C 37.8408131567496 95.8079922195441  39.4567971246536 94.1920082516401  39.4838641051095 92.1904832467153  Z M 110.324590341606 83.1006004321168  C 106.807669832552 83.1006004837171  103.956642475912 85.9516278821875  103.956642475912 89.4685483912409  C 103.956642475912 92.9854689367812  106.807669889496 95.836496350365  110.324590435037 95.836496350365  C 113.841510980577 95.836496350365  116.692538394161 92.9854689367812  116.692538394161 89.4685483912409  C 116.692538394161 85.9516278457005  113.841510980577 83.1006004321168  110.324590435037 83.1006004321168  Z " fill-rule="nonzero" fill="#555555" stroke="none" transform="matrix(1 0 0 1 1213 690 )" />
  </g>
</svg>