<?xml version="1.0" encoding="utf-8"?>
<svg version="1.1" xmlns:xlink="http://www.w3.org/1999/xlink" width="78px" height="69px" xmlns="http://www.w3.org/2000/svg">
  <g transform="matrix(1 0 0 1 -1264 -717 )">
    <path d="M 4.89595291094891 7.27535481459854  C 4.89595291094891 10.8840023824818  7.65525330218978 13.6447399240876  11.263900870073 13.6447399240876  C 13.5282252049175 13.6707162055254  15.6259994589528 12.4581299172248  16.7336390072993 11  L 32.2245239591241 11  L 47.4136103240876 25.6649422481752  L 47.439478750365 25.6922478248175  L 56.742057670073 25.6922478248175  C 57.8979776178689 27.4675951014242  59.8807201861432 28.5294301730451  61.9990997956204 28.507596519708  C 65.6077473635037 28.507596519708  68.3670477547445 25.7482961284672  68.3670477547445 22.1396485605839  C 68.3670477547445 18.5310009927007  65.6077473635037 15.7717006014599  61.9990997956204 15.7717006014599  C 59.74027177919 15.7465704116034  57.6471357160543 16.9539794079776  56.5379843737226 18.9219018744526  L 50.4862063182482 18.9219018744526  L 38.0521088934307 6.6631350189781  L 35.0844238481752 4  L 16.5080087357664 4  C 15.3501900994216 1.93974521270228  13.3740983254583 0.885901799404834  11.263900870073 0.907406855474449  C 7.65525330218977 0.907406855474449  4.89595291094891 3.66670724671533  4.89595291094891 7.27535481459854  Z M 77.0703410452554 43.3833873751825  C 77.0608693604559 39.8701644693787  74.2156137651086 37.024266742509  70.7023930861314 37.0140022656934  C 67.9876438890511 37.0140022656934  65.7528979620438 38.5761686423358  64.8101370394161 40  L 41.4150062715328 40  L 23.0958384583942 59  L 12.3460639766423 59  C 11.6292634020018 57.9633664338482  10.4932811189704 57.0200271657667  9.14268870072993 56.543238259854  C 5.95799619270073 55.2699361167883  2.138089670073 56.9743789781022  0.863350376642344 60.1518857343066  C -0.411388916788312 63.3293924905109  1.29449109489052 67.1564847649635  4.47199794452556 68.4312240583942  C 7.33189783357666 69.4530275036496  10.3886852671533 68.507392280292  12.1276193635037 66  L 25.8867558773723 66  L 25.8867558773723 65.9665365021898  L 25.8982528934307 65.9780336116788  L 44.2159835562044 47  L 65.4295424934307 47  L 65.4295424934307 47.6286859211679  L 66.031702329927 47.6286859211679  C 67.1993906424592 48.9904008446628  68.9086506198898 49.7671937683813  70.7023930861314 49.7513352408759  C 74.3110406540146 49.7513352408759  77.0703410452554 46.992034849635  77.0703410452554 43.3833873751825  Z M 0.650654271532851 32.3289400992701  C 0.650654271532851 35.9375876671533  3.40995466277371 38.6968880583942  7.01860223065693 38.6968880583942  C 9.24509563269042 38.7205196772397  11.3127924473703 37.5467395872895  12.4337293080292 35  L 22.8314055007299 35  C 23.9523423448212 37.5467395580393  26.0200391158955 38.7205196434877  28.2465324846715 38.6968880583942  C 31.8551800525547 38.6968880583942  34.6144804437956 35.9375876671533  34.6144804437956 32.3289400992701  C 34.6144804437956 28.7202925313869  31.8551800525547 25.960992140146  28.2465324846715 25.960992140146  C 26.0958974106065 25.938527515556  24.0874786369885 27.0330396134981  22.9406278072993 29  L 12.3245070014599 29  C 11.1776561542722 27.0330395849909  9.1692373378305 25.9385274829845  7.01860223065693 25.960992140146  C 3.40995466277371 25.960992140146  0.650654271532851 28.7202925313869  0.650654271532851 32.3289400992701  Z " fill-rule="nonzero" fill="#555555" stroke="none" transform="matrix(1 0 0 1 1264 717 )" />
  </g>
</svg>