<?xml version="1.0" encoding="utf-8"?>
<svg version="1.1" xmlns:xlink="http://www.w3.org/1999/xlink" width="60px" height="14px" xmlns="http://www.w3.org/2000/svg">
  <g transform="matrix(1 0 0 1 -613 -723 )">
    <path d="M 34.7544642857143 13.5557692307692  L 43.2321428571428 13.5557692307692  L 49.1919642857143 0.713461538461532  L 40.7142857142857 0.713461538461532  L 34.7544642857143 13.5557692307692  Z M 25.3794642857143 0.713461538461548  L 16.9017857142857 0.71346153846154  L 10.9419642857143 13.5557692307692  L 19.4196428571429 13.5557692307692  L 25.3794642857143 0.713461538461548  Z M 31.3258928571429 13.5557692307692  L 37.2857142857143 0.71346153846154  L 28.8080357142857 0.71346153846154  L 22.8482142857143 13.5557692307692  L 31.3258928571429 13.5557692307692  Z M 13.4732142857143 0.713461538461548  L 1 0.71346153846154  L 1 13.5557692307692  L 7.51339285714286 13.5557692307692  L 13.4732142857143 0.713461538461548  Z M 46.6607142857143 13.5557692307692  L 59 13.5557692307692  L 59 0.713461538461532  L 52.6205357142857 0.713461538461532  L 46.6607142857143 13.5557692307692  Z " fill-rule="nonzero" fill="#555555" stroke="none" transform="matrix(1 0 0 1 613 723 )" />
  </g>
</svg>