<?xml version="1.0" encoding="utf-8"?>
<svg version="1.1" xmlns:xlink="http://www.w3.org/1999/xlink" width="113px" height="99px" xmlns="http://www.w3.org/2000/svg">
  <g transform="matrix(1 0 0 1 -586 -688 )">
    <path d="M 73.8364386792453 82.2870967741935  C 69.4257075471698 86.5983870967742  63.9889150943396 90.4971774193548  57.446108490566 93.3181451612903  C 46.732429245283 88.6875  38.9770047169811 81.1959677419355  33.8333726415094 73.6911290322581  C 31.0483490566038 72.7596774193548  28.369929245283 71.7616935483871  25.8114386792453 70.7370967741935  C 26.8908018867925 72.7596774193548  28.1034198113208 74.7822580645161  29.4492924528302 76.725  C 34.2064858490566 83.6310483870968  42.7347877358491 93.0387096774193  56.3400943396227 98.6141129032258  C 56.6998820754717 98.7604838709677  57.0729952830189 98.8403225806452  57.446108490566 98.8403225806452  C 57.8192216981132 98.8403225806452  58.1923349056604 98.7737903225806  58.5521226415094 98.6274193548387  C 68.4529481132075 94.5556451612903  75.6620283018868 88.4745967741935  80.6857311320755 82.7927419354839  C 78.4603773584906 82.6862903225806  76.1683962264151 82.5133064516129  73.8364386792453 82.2870967741935  Z M 111.960613207547 65.4012096774194  C 112.626886792453 62.3407258064516  110.974528301887 59.0141129032258  107.043514150943 55.5145161290323  C 106.057429245283 54.6362903225806  104.924764150943 53.7447580645161  103.645518867925 52.8665322580645  C 101.047051886792 51.0435483870968  97.8889150943396 49.220564516129  94 47.4641129032258  L 94 19.8931451612903  C 94.2777122641509 18.2697580645161  92.9718160377359 16.9524193548387  91.3727594339623 16.9524193548387  C 82.7778301886793 16.9125  75.0757075471698 14.6104838709677  68.4662735849057 10.1129032258064  C 63.3359669811321 6.6266129032258  60.5775943396226 2.94072580645161  59.8446933962264 1.88951612903226  C 59.2983490566038 1.10443548387097  58.4055424528302 0.62540322580645  57.446108490566 0.62540322580645  C 56.5 0.62540322580645  55.5938679245283 1.09112903225806  55.0475235849057 1.87620967741935  C 54.3146226415094 2.92741935483871  51.5429245283019 6.6133064516129  46.4126179245283 10.0995967741935  C 39.789858490566 14.5971774193548  32.0744103773585 16.8991935483871  23.4928066037736 16.9391129032258  C 21.89375 16.9524193548387  20.5878537735849 18.2697580645161  21 19.8798387096774  L 21 32.2016129032258  C 18.9354952830189 32.308064516129  17.3764150943396 32.454435483871  15.9106132075472 32.6540322580645  C 12.6192216981132 33.0931451612903  9.82087264150943 33.7584677419355  7.54221698113208 34.6366935483871  C 3.67783018867925 36.1403225806452  1.42582547169812 38.2427419354839  0.839504716981135 40.8907258064516  C 0.27983490566038 43.4189516129032  1.31922169811321 46.1334677419355  3.90436320754717 48.9810483870968  L 3.91768867924529 48.9943548387097  C 3.97099056603774 49.0475806451613  4.01096698113208 49.1008064516129  4.06426886792453 49.1540322580645  C 6.47617924528302 51.7354838709677  10.127358490566 54.3701612903226  14.9245283018868 56.9915322580645  C 15.2443396226415 57.1645161290322  15.5774764150943 57.3508064516129  15.9106132075472 57.5237903225806  C 17.6962264150943 58.4685483870968  19.6150943396226 59.4  21.6272405660377 60.2915322580645  C 22.2135613207547 62.5004032258064  23.0397405660377 64.8024193548387  24.0658018867925 67.1310483870968  C 26.4377358490566 68.1556451612903  28.9429245283019 69.1403225806451  31.5680424528302 70.0850806451613  C 30.1555424528302 67.6366935483871  29.0095518867925 65.2282258064516  28.130070754717 62.9661290322581  C 35.4990566037736 65.7737903225806  43.8408018867924 68.2487903225806  52.6222877358491 70.1915322580645  C 62.4831367924528 72.3737903225806  72.1307783018868 73.704435483871  80.752358490566 74.116935483871  C 79.4064858490566 76.0463709677419  77.9007075471698 77.9625  76.2083726415094 79.8254032258064  C 78.4870283018868 80.0116935483871  80.7123820754717 80.1447580645161  82.8577830188679 80.2112903225806  C 83.8172169811321 79.0004032258064  84.6700471698113 77.829435483871  85.4295990566038 76.725  C 85.9892688679245 75.9133064516129  86.522287735849 75.0883064516129  87.0419811320755 74.25  C 88.8942216981132 74.2366935483871  90.6665094339623 74.1834677419355  92.3854952830189 74.0637096774193  C 96.8495283018868 73.7709677419355  100.633962264151 73.145564516129  103.658844339623 72.2008064516129  C 104.325117924528 71.9879032258064  104.95141509434 71.775  105.537735849057 71.5354838709677  C 106.697051886792 71.0697580645161  107.709787735849 70.5375  108.562617924528 69.9653225806452  C 108.122877358491 69.2201612903226  107.56320754717 68.5016129032258  106.950235849057 67.8229838709677  C 106.070754716981 68.4084677419355  104.964740566038 68.9274193548387  103.658844339623 69.3798387096774  C 100.767216981132 70.3911290322581  96.876179245283 71.0963709677419  92.2122641509434 71.4024193548387  C 91.0529481132075 71.4822580645161  89.8536556603774 71.5354838709677  88.6143867924528 71.5620967741935  C 92.1856132075472 65.0685483870968  94.2910377358491 58.3754032258064  94.2910377358491 53.1858870967742  L 94.2910377358491 50.4314516129032  C 98.0221698113208 52.3209677419355  101.193632075472 54.2637096774193  103.658844339623 56.1665322580645  C 104.24516509434 56.6189516129032  104.778183962264 57.058064516129  105.284551886792 57.5104838709677  C 107.456603773585 59.4399193548387  109.921816037736 62.2741935483871  109.362146226415 64.8290322580645  C 109.268867924528 65.2282258064516  109.108962264151 65.6008064516129  108.882429245283 65.9733870967742  C 109.562028301887 66.7052419354839  110.135023584906 67.4370967741936  110.588089622642 68.1556451612903  C 111.281014150943 67.3173387096774  111.734080188679 66.3991935483871  111.960613207547 65.4012096774194  Z M 20.9209905660377 57.0314516129032  C 19.2686320754717 56.2463709677419  17.6829009433962 55.4479838709677  16.2037735849056 54.6362903225806  C 16.1104952830189 54.583064516129  16.0038915094339 54.5298387096774  15.9106132075472 54.4766129032258  C 11.3932783018868 51.9883064516129  7.96863207547169 49.4600806451613  5.84988207547169 47.1181451612903  C 5.83655660377358 47.1181451612903  5.83655660377358 47.1314516129032  5.82323113207546 47.1314516129032  C 4.98372641509433 46.2798387096774  4.43738207547169 45.3483870967742  4.23749999999999 44.9891129032258  C 3.49127358490565 43.6983870967742  3.19811320754716 42.5141129032258  3.4379716981132 41.4495967741935  C 4.07759433962263 38.5354838709677  8.63490566037735 36.3532258064516  15.9106132075472 35.3286290322581  C 17.3630896226415 35.1290322580645  18.9221698113207 34.9693548387097  21 34.8629032258064  L 21 53.1991935483871  C 20.5878537735849 54.3967741935484  20.7077830188679 55.6875  20.9209905660377 57.0314516129032  Z M 89 22.2084677419355  L 89 53.1991935483871  C 88.9608490566038 57.4173387096774  86.8954009433962 64.3633064516129  82.4580188679245 71.5221774193548  C 73.6099056603774 71.2161290322581  63.5358490566038 69.8721774193548  53.208608490566 67.5834677419355  C 43.7075471698113 65.4810483870968  34.7395047169811 62.7665322580645  27.0107311320755 59.6661290322581  C 26.2778301886792 57.1645161290323  25.9180424528302 54.9423387096774  26 53.1991935483871  L 26 22.2084677419355  C 34.6462264150943 21.7693548387097  42.5349056603773 19.1879032258064  49.4241745283019 14.5040322580645  C 53.1153301886792 12.0024193548387  55.7670990566038 9.35443548387096  57.4594339622641 7.42499999999999  C 59.1384433962264 9.35443548387096  61.7902122641509 11.9891129032258  65.4680424528302 14.5040322580645  C 72.3439858490566 19.1879032258064  80.2326650943396 21.7693548387097  89 22.2084677419355  Z " fill-rule="nonzero" fill="#555555" stroke="none" transform="matrix(1 0 0 1 586 688 )" />
  </g>
</svg>