<?xml version="1.0" encoding="utf-8"?>
<svg version="1.1" xmlns:xlink="http://www.w3.org/1999/xlink" width="113px" height="38px" xmlns="http://www.w3.org/2000/svg">
  <g transform="matrix(1 0 0 1 -586 -733 )">
    <path d="M 4.22417452830189 0.277083333333336  C 4.2375 0.277083333333336  4.2375 0.277083333333336  4.22417452830189 0.277083333333336  C 4.42405660377359 0.633333333333335  4.98372641509434 1.55694444444445  5.80990566037736 2.4013888888889  C 5.82323113207547 2.4013888888889  5.82323113207547 2.38819444444445  5.83655660377358 2.38819444444445  C 5.18360849056604 1.6625  4.63726415094339 0.963194444444446  4.22417452830189 0.277083333333336  Z M 111.960613207547 29.1333333333333  C 112.373702830189 27.2597222222222  111.907311320755 25.29375  110.574764150943 23.2486111111111  C 110.108372641509 22.5361111111111  109.535377358491 21.8104166666667  108.869103773585 21.0847222222222  C 108.322759433962 20.5041666666667  107.723113207547 19.9104166666667  107.043514150943 19.3166666666667  C 104.005306603774 16.6381944444445  99.5679245283019 13.8805555555556  94.1178066037736 11.2548611111111  C 94.0645047169811 11.6111111111111  93.8246462264151 13.1944444444445  93.6647405660377 13.9861111111111  C 98.5685141509434 16.4006944444445  102.539504716981 18.8944444444445  105.271226415094 21.2958333333333  C 105.830896226415 21.7840277777778  106.403891509434 22.3381944444445  106.936910377358 22.91875  C 107.549882075472 23.5784722222222  108.109551886792 24.3041666666667  108.54929245283 25.0430555555556  C 109.228891509434 26.1909722222222  109.602004716981 27.4048611111111  109.348820754717 28.5527777777778  C 108.575943396226 31.9965277777778  102.166391509434 34.4375  92.2122641509434 35.0840277777778  C 89.3073113207547 35.26875  86.1625 35.3083333333334  82.8577830188679 35.2027777777778  C 80.7123820754717 35.1368055555556  78.4870283018868 35.0048611111111  76.2083726415094 34.8201388888889  C 68.9859669811321 34.2263888888889  61.1772405660377 33.0388888888889  53.208608490566 31.2840277777778  C 45.5198113207547 29.5951388888889  38.1908018867924 27.5104166666667  31.5813679245283 25.1486111111111  C 28.95625 24.2118055555556  26.4510613207547 23.2354166666667  24.0791273584906 22.2194444444445  C 21.2541273584906 21.0055555555556  18.6156839622641 19.7388888888889  16.2170990566038 18.4458333333333  C 7.46226415094339 13.7090277777778  2.69174528301886 8.8138888888889  3.45129716981131 5.37013888888889  C 3.5445754716981 4.97430555555556  3.70448113207546 4.59166666666668  3.93101415094339 4.23541666666667  L 3.91768867924527 4.22222222222222  C 3.79775943396225 4.10347222222222  3.0382075471698 3.33819444444445  2.21202830188678 2.07152777777778  C 1.5191037735849 2.90277777777778  1.06603773584905 3.81319444444444  0.839504716981124 4.80277777777777  C 0.266509433962257 7.36249999999999  1.35919811320754 10.1201388888889  4.07759433962263 12.9965277777778  C 6.48950471698112 15.55625  10.1406839622641 18.16875  14.9378537735849 20.7680555555556  C 18.1892688679245 22.5229166666667  21.8537735849057 24.225  25.8380896226415 25.8083333333333  C 28.3832547169811 26.8243055555556  31.0616745283019 27.8006944444444  33.8600235849056 28.7375  C 39.7232311320755 30.6902777777778  46.0528301886792 32.4319444444445  52.6356132075472 33.8701388888889  C 59.9379716981132 35.4666666666667  67.1204009433962 36.6145833333333  73.8497641509434 37.2611111111111  C 76.1950471698113 37.4854166666667  78.4870283018868 37.6569444444445  80.6990566037736 37.7625  C 82.6579009433962 37.8548611111111  84.5501179245283 37.9076388888889  86.3890330188679 37.9076388888889  C 88.4678066037736 37.9076388888889  90.4799528301887 37.8416666666667  92.3854952830188 37.7229166666667  C 97.8356132075471 37.3666666666667  102.259669811321 36.5222222222222  105.537735849057 35.2159722222222  C 109.228891509434 33.7381944444444  111.387617924528 31.6930555555556  111.960613207547 29.1333333333333  Z " fill-rule="nonzero" fill="#555555" stroke="none" transform="matrix(1 0 0 1 586 733 )" />
  </g>
</svg>