<?xml version="1.0" encoding="utf-8"?>
<svg version="1.1" xmlns:xlink="http://www.w3.org/1999/xlink" width="102px" height="101px" xmlns="http://www.w3.org/2000/svg">
  <g transform="matrix(1 0 0 1 -909 -687 )">
    <path d="M 101 7.86400602409638  C 100.967857142857 3.69623493975903  97.6285714285714 0.349849397590359  93.4696428571429 1  L 48.45 1  C 44.2910714285714 0.349849397590363  40.9517857142857 3.71144578313253  40.9517857142857 7.86400602409639  L 40.9517857142857 16  L 8.43928571428571 16  C 4.28035714285714 15.3781626506024  0.941071428571427 18.7397590361446  1 22.8923192771084  L 1 93.0751506024096  C 0.941071428571427 97.242921686747  4.29553571428571 100.589307228916  8.43928571428571 100  L 68.4553571428571 100  C 72.6142857142857 100.589307228916  75.9535714285714 97.2277108433735  75.9535714285714 93.0751506024096  L 75.9535714285714 85.5609939759036  C 75.9535714285714 84.1615963855422  74.8607142857143 83.0512048192771  73.4491071428571 83.0512048192771  C 72.0526785714286 83.0512048192771  70.9446428571429 84.1615963855422  70.9446428571429 85.5609939759036  L 70.9446428571429 93.0751506024096  C 70.9446428571429 94.4745481927711  69.8517857142857 95.5849397590361  68.4401785714286 95  L 8.43928571428571 95  C 7.04285714285714 95.5849397590361  5.93482142857143 94.4897590361446  6 93.0751506024096  L 6 22.9075301204819  C 5.93482142857143 21.5081325301205  7.04285714285714 20.3977409638554  8.43928571428571 21  L 68.4553571428571 21  C 69.8517857142857 20.3977409638554  70.9598214285714 21.5081325301205  70.9598214285714 22.9075301204819  L 70.9598214285714 30.421686746988  C 70.9598214285714 31.8210843373494  72.0678571428571 32.9314759036145  73.4642857142857 32.9314759036145  C 74.8607142857143 32.9314759036145  75.96875 31.8362951807229  75.96875 30.421686746988  L 75.96875 22.9075301204819  C 75.96875 18.7397590361446  72.6142857142857 15.3933734939759  68.4705357142857 16  L 45.9455357142857 16  L 45.9455357142857 7.87921686746989  C 45.9455357142857 6.47981927710844  47.0383928571429 5.36942771084338  48.45 6  L 93.4696428571429 6  C 94.8660714285714 5.36942771084338  95.9741071428571 6.47981927710844  96 7.87921686746989  L 96 30.421686746988  C 95.9741071428571 31.8210843373494  97.0821428571428 32.9314759036145  98.4785714285714 32.9314759036145  C 99.875 32.9314759036145  100.983035714286 31.8362951807229  101 30.421686746988  L 101 7.86400602409638  Z " fill-rule="nonzero" fill="#555555" stroke="none" transform="matrix(1 0 0 1 909 687 )" />
  </g>
</svg>