<?xml version="1.0" encoding="utf-8"?>
<svg version="1.1" xmlns:xlink="http://www.w3.org/1999/xlink" width="50px" height="50px" xmlns="http://www.w3.org/2000/svg">
  <g transform="matrix(1 0 0 1 -960 -720 )">
    <path d="M 44.7103658536585 37.5609756097561  C 48.9786585365854 38.3536585365854  51.2957317073171 32.7743902439025  47.7286585365854 30.3201219512195  L 45.0609756097561 28.4603658536585  C 42.7439024390244 26.859756097561  42.7439024390244 23.4908536585366  45.0609756097561 21.875  L 47.7286585365854 20.015243902439  C 51.25 17.5609756097561  48.9786585365854 12.0274390243902  44.7103658536585 12.7743902439024  L 41.5396341463415 13.3231707317073  C 38.7804878048781 13.8262195121951  36.3719512195122 11.4176829268292  36.875 8.65853658536583  L 37.4237804878049 5.48780487804876  C 38.1707317073171 1.265243902439  32.6524390243903 -1.03658536585369  30.1829268292683 2.46951219512192  L 28.3231707317073 5.13719512195119  C 26.7225609756098 7.4542682926829  23.3536585365854 7.4542682926829  21.7378048780488 5.13719512195119  L 19.8780487804878 2.46951219512192  C 17.4237804878049 -1.05182926829271  11.890243902439 1.21951219512193  12.6371951219512 5.48780487804876  L 13.1859756097561 8.65853658536583  C 13.6890243902439 11.4176829268292  11.280487804878 13.8262195121951  8.52134146341463 13.3231707317073  L 5.35060975609756 12.7743902439024  C 1.1280487804878 12.0274390243902  -1.17378048780488 17.545731707317  2.33231707317074 20.015243902439  L 5.00000000000001 21.875  C 7.31707317073172 23.4756097560975  7.31707317073172 26.8445121951219  5.00000000000001 28.4603658536585  L 2.33231707317074 30.3201219512195  C -1.1890243902439 32.7743902439024  1.08231707317074 38.3079268292683  5.35060975609756 37.5609756097561  L 8.52134146341463 37.0121951219512  C 11.280487804878 36.5091463414634  13.6890243902439 38.9176829268293  13.1859756097561 41.6768292682927  L 12.6371951219512 44.8475609756097  C 11.890243902439 49.0701219512195  17.4085365853658 51.3719512195122  19.8780487804878 47.8658536585366  L 21.7378048780488 45.1981707317073  C 23.3384146341463 42.8810975609756  26.7073170731707 42.8810975609756  28.3231707317073 45.1981707317073  L 30.1829268292683 47.8658536585366  C 32.6371951219512 51.3871951219512  38.1707317073171 49.1158536585366  37.4237804878049 44.8475609756098  L 36.875 41.6768292682927  C 36.3719512195122 38.9176829268293  38.780487804878 36.5091463414634  41.5396341463415 37.0121951219512  L 44.7103658536585 37.5609756097561  Z M 36.3719512195122 25.1981707317073  C 36.3719512195122 31.4176829268293  31.2957317073171 36.4939024390244  25.0762195121951 36.4939024390244  C 18.8414634146341 36.4939024390244  13.780487804878 31.4176829268293  13.780487804878 25.1981707317073  C 13.780487804878 18.9634146341463  18.8567073170732 13.9024390243902  25.0762195121951 13.9024390243902  C 31.3109756097561 13.9024390243902  36.3719512195122 18.9786585365854  36.3719512195122 25.1981707317073  Z " fill-rule="nonzero" fill="#555555" stroke="none" transform="matrix(1 0 0 1 960 720 )" />
  </g>
</svg>