<?xml version="1.0" encoding="utf-8"?>
<svg version="1.1" xmlns:xlink="http://www.w3.org/1999/xlink" width="11px" height="11px" xmlns="http://www.w3.org/2000/svg">
  <g transform="matrix(1 0 0 1 -280 -1020 )">
    <path d="M 285.5 1020  C 288.58 1020  291 1022.42  291 1025.5  C 291 1028.58  288.58 1031  285.5 1031  C 282.42 1031  280 1028.58  280 1025.5  C 280 1022.42  282.42 1020  285.5 1020  Z " fill-rule="nonzero" fill="#ffffff" stroke="none" />
    <path d="M 285.5 1020.5  C 288.3 1020.5  290.5 1022.7  290.5 1025.5  C 290.5 1028.3  288.3 1030.5  285.5 1030.5  C 282.7 1030.5  280.5 1028.3  280.5 1025.5  C 280.5 1022.7  282.7 1020.5  285.5 1020.5  Z " stroke-width="1" stroke="#d21216" fill="none" />
  </g>
</svg>