<?xml version="1.0" encoding="utf-8"?>
<svg version="1.1" xmlns:xlink="http://www.w3.org/1999/xlink" width="47px" height="52px" xmlns="http://www.w3.org/2000/svg">
  <g transform="matrix(1 0 0 1 -25 -25 )">
    <path d="M 35 15.8088965517241  C 35.6540192307692 12.9650344827586  33.3085384615385 10.4654482758621  30.4415384615385 10.4654482758621  C 30.4415384615385 10.4654482758621  26.44925 10.1848275862069  23.4719807692308 10.1848275862069  C 20.4938076923077 10.1848275862069  16.5015192307692 10.4654482758621  16.5015192307692 10.4654482758621  C 13.6345192307692 10.4654482758621  11.2872307692308 12.9659310344828  12 15.8088965517241  L 12 33.7722068965517  C 11.2872307692308 36.6169655172414  13.6336153846154 38.9435172413793  16.5015192307692 39  L 30.4415384615385 39  C 33.3085384615385 38.9435172413793  35.6549230769231 36.6169655172414  35 33.7722068965517  L 35 15.8088965517241  Z M 18.6436346153846 12.6664827586207  C 18.6436346153846 12.2702068965517  18.9708269230769 11.9456551724138  19.3712307692308 11.9456551724138  L 27.5709230769231 11.9456551724138  C 27.9713269230769 11.9456551724138  28.2985192307692 12.2702068965517  28.2985192307692 12.6664827586207  C 28.2985192307692 13.0645517241379  27.9722307692308 13.3891034482759  27.5709230769231 13.3891034482759  L 19.3712307692308 13.3891034482759  C 18.9708269230769 13.3891034482759  18.6436346153846 13.0645517241379  18.6436346153846 12.6664827586207  Z M 19.1696730769231 33.7399310344828  C 19.1696730769231 35.0766896551724  18.0769230769231 36.1615172413793  16.7283846153846 36.1615172413793  C 15.3789423076923 36.1615172413793  14.2870961538462 35.0766896551724  14.2870961538462 33.7399310344828  C 14.2870961538462 32.4013793103448  15.3789423076923 31.3174482758621  16.7283846153846 31.3174482758621  C 18.0769230769231 31.3174482758621  19.1696730769231 32.4013793103448  19.1696730769231 33.7399310344828  Z M 32.6559615384615 33.7399310344828  C 32.6559615384615 35.0766896551724  31.5623076923077 36.1615172413793  30.2146730769231 36.1615172413793  C 28.8661346153846 36.1615172413793  27.7733846153846 35.0766896551724  27.7733846153846 33.7399310344828  C 27.7733846153846 32.4013793103448  28.8661346153846 31.3174482758621  30.2146730769231 31.3174482758621  C 31.5623076923077 31.3174482758621  32.6559615384615 32.4013793103448  32.6559615384615 33.7399310344828  Z M 33.5860192307692 17.6620689655172  L 33.5860192307692 24.2669655172414  C 33.5860192307692 25.4055862068966  32.6478269230769 26.3362068965517  31.4999423076923 26  L 15.4413076923077 26  C 14.2943269230769 26.3362068965517  13.3561346153846 25.4055862068966  13.3561346153846 24.2669655172414  L 13.3561346153846 17.6620689655172  C 13.3561346153846 16.5234482758621  14.2943269230769 15.5928275862069  15.4413076923077 16  L 31.4999423076923 16  C 32.6478269230769 15.5928275862069  33.5860192307692 16.5234482758621  33.5860192307692 17.6620689655172  Z M 34.6968461538462 48.6567586206897  L 37.3776538461538 48.6567586206897  L 30.9793269230769 40.4228275862069  L 28.2985192307692 40.4228275862069  L 30.1197692307692 42  L 16.6840961538462 42  L 18.5053461538462 40.4228275862069  L 15.8227307692308 40.4228275862069  L 9.42530769230769 48.6567586206897  L 12.1070192307692 48.6567586206897  L 15.3644807692308 44.4653793103448  L 15.3644807692308 44.5397931034483  L 15.8850961538462 44  L 30.9187692307692 44  L 31.4393846153846 44.5397931034483  L 31.4393846153846 44.4653793103448  L 34.6968461538462 48.6567586206897  Z M 0 51.8251724137931  L 4 49.5613793103448  L 4 15.4655172413793  C 3.24209615384615 8.85972413793104  8.66065384615385 3.48579310344828  15.3201923076923 4  L 31.3987115384615 4  C 38.0573461538462 3.48579310344828  43.4768076923077 8.85972413793104  43 15.4655172413793  L 43 49.5613793103448  L 46 51.824275862069  L 46 15.4655172413793  C 46.6963076923077 7.09889655172414  39.8325 0.292275862068966  31.3987115384615 1  L 15.3201923076923 1  C 6.88640384615385 0.292275862068965  0.0234999999999998 7.09889655172414  0 15.4655172413793  L 0 51.8251724137931  Z " fill-rule="nonzero" fill="#aaaaaa" stroke="none" transform="matrix(1 0 0 1 25 25 )" />
  </g>
</svg>