<?xml version="1.0" encoding="utf-8"?>
<svg version="1.1" xmlns:xlink="http://www.w3.org/1999/xlink" width="20px" height="22px" xmlns="http://www.w3.org/2000/svg">
  <g transform="matrix(1 0 0 1 -1694 -75 )">
    <path d="M 19.3700654545455 18.3475751724138  C 19.7423749811909 18.7417755602175  19.9504625299977 19.2733379896047  19.949090909091 19.8267034482759  C 19.9509146035515 20.3829180426502  19.741371039456 20.9172236876015  19.3663418181817 21.3126289655172  C 18.9942852718313 21.7050926654409  18.4871471497924 21.9259475884178  17.9580089160362 21.9259475884178  C 17.4307453734175 21.9259475884178  16.9252442672556 21.7066503971409  16.5534836363637 21.3166344827586  L 12.8194909090909 17.5027751724138  C 12.6229277040181 17.6104782807739  12.4224800340035 17.7102848399383  12.218589090909 17.8019751724138  C 10.0402919626521 18.7697320803937  7.57797712825701 18.7697320803937  5.39968000000007 17.8019751724138  C 4.35736316890484 17.3380223787727  3.41182149011293 16.6664311811208  2.61602909090906 15.8248275862069  C -0.811627116382094 12.2104662073225  -0.811627116382094 6.39164137888442  2.61602909090906 2.77728  C 4.25615304560949 1.0594151296232  6.48469655952681 0.0937341805650187  8.80896334733677 0.0937341805650187  C 12.339064123192 0.0937341805650187  15.522592915377 2.30883369215224  16.8786036363637 5.7085903448276  C 18.0647877792849 8.65196018049849  17.715265233389 12.0249281712808  15.9535127272727 14.6359172413793  L 19.3700654545455 18.3475751724138  Z M 8.83636363636356 17.311724137931  C 13.0387199999999 17.311724137931  16.4570181818182 13.7165903448276  16.4570181818182 9.29971862068965  C 16.4570181818182 4.88236137931035  13.0384872727274 1.28868413793104  8.83647999999994 1.28868413793104  C 4.6344727272727 1.28868413793104  1.21535999999992 4.88272551724137  1.21535999999992 9.29971862068965  C 1.21535999999992 13.7167117241379  4.63400727272718 17.311724137931  8.83636363636356 17.311724137931  Z " fill-rule="nonzero" fill="#7f7f7f" stroke="none" transform="matrix(1 0 0 1 1694 75 )" />
  </g>
</svg>