<?xml version="1.0" encoding="utf-8"?>
<svg version="1.1" xmlns:xlink="http://www.w3.org/1999/xlink" width="31px" height="25px" xmlns="http://www.w3.org/2000/svg">
  <g transform="matrix(1 0 0 1 -1470 -256 )">
    <path d="M 11.656 16.1  C 11.6579375 11.4320754716981  15.7731875 7.64339622641509  20.983125 7.64339622641509  C 21.339625 7.64339622641509  21.6903125 7.66981132075472  22.0429375 7.70754716981132  C 21.0935625 3.40188679245283  16.368 0.203773584905661  10.9720625 0.203773584905661  C 4.940625 0.203773584905661  0 4.20566037735849  0 9.29056603773585  C 0 12.2245283018868  1.643 14.6339622641509  4.390375 16.5056603773585  L 3.29375 19.7188679245283  L 7.13 17.8471698113208  C 8.50175 18.1094339622641  9.60225 18.3811320754717  10.9720625 18.3811320754717  C 11.3169375 18.3811320754717  11.6579375 18.3660377358491  11.9950625 18.3415094339623  C 11.7819375 17.6264150943396  11.656 16.8792452830189  11.656 16.1  Z M 13.4404375 6.0811320754717  C 13.4404375 5.27547169811321  14.263875 4.74716981132076  15.085375 4.74716981132076  C 15.914625 4.74716981132076  16.4590625 5.27735849056604  16.4590625 6.0811320754717  C 16.4590625 6.8811320754717  15.914625 7.41698113207547  15.085375 7.41698113207547  C 14.2658125 7.41698113207547  13.4404375 6.8811320754717  13.4404375 6.0811320754717  Z M 8.776875 6.0811320754717  C 8.776875 6.8811320754717  8.2305 7.41698113207547  7.4070625 7.41698113207547  C 6.583625 7.41698113207547  5.754375 6.8811320754717  5.754375 6.0811320754717  C 5.754375 5.27735849056604  6.583625 4.74716981132076  7.4070625 4.74716981132076  C 8.2305 4.74716981132076  8.776875 5.27547169811321  8.776875 6.0811320754717  Z M 27.1540625 22.1264150943396  C 29.357 20.5150943396226  31 18.3811320754717  31 15.9716981132075  C 31 11.7  26.609625 8.2188679245283  21.6786875 8.2188679245283  C 16.457125 8.2188679245283  12.3476875 11.7018867924528  12.3476875 15.9716981132075  C 12.3476875 20.2547169811321  16.4590625 23.7245283018868  21.6786875 23.7245283018868  C 22.7714375 23.7245283018868  23.873875 23.4584905660377  24.9705 23.1905660377358  L 27.9794375 24.7981132075472  L 27.1540625 22.1264150943396  Z M 20.026 13.5660377358491  C 20.026 14.1056603773585  19.4854375 14.6339622641509  18.6523125 14.6339622641509  C 18.107875 14.6339622641509  17.5556875 14.1056603773585  17.5556875 13.5660377358491  C 17.5556875 13.0339622641509  18.107875 12.4981132075472  18.6523125 12.4981132075472  C 19.4854375 12.4981132075472  20.026 13.0339622641509  20.026 13.5660377358491  Z M 26.0613125 13.5660377358491  C 26.0613125 14.1056603773585  25.513 14.6339622641509  24.687625 14.6339622641509  C 24.1470625 14.6339622641509  23.5968125 14.1056603773585  23.5968125 13.5660377358491  C 23.5968125 13.0339622641509  24.145125 12.4981132075472  24.687625 12.4981132075472  C 25.513 12.4981132075472  26.0613125 13.0339622641509  26.0613125 13.5660377358491  Z " fill-rule="nonzero" fill="#70b603" stroke="none" transform="matrix(1 0 0 1 1470 256 )" />
  </g>
</svg>