<?xml version="1.0" encoding="utf-8"?>
<svg version="1.1" xmlns:xlink="http://www.w3.org/1999/xlink" width="22px" height="27px" xmlns="http://www.w3.org/2000/svg">
  <g transform="matrix(1 0 0 1 -1516 -256 )">
    <path d="M 21.8625 11.1744140625  L 21.8319444444444 11.17705078125  C 19.6930555555556 11.17705078125  17.6127314814815 10.4572265625  15.9016203703704 9.12568359375  L 15.9016203703704 18.41484375  C 15.9016203703704 23.15830078125  12.3724537037037 27  8.01828703703704 27  C 3.66412037037037 27  0.134953703703704 23.15830078125  0.134953703703704 18.41484375  C 0.134953703703704 13.67138671875  3.66412037037037 9.8296875  8.01828703703704 9.8296875  C 8.4537037037037 9.8296875  8.87638888888889 9.86923828125  9.28888888888889 9.94306640625  L 9.28888888888889 14.86318359375  C 8.89421296296296 14.70234375  8.47407407407407 14.62060546875  8.05138888888889 14.62060546875  C 6.10856481481481 14.62060546875  4.53240740740741 16.33447265625  4.53240740740741 18.4517578125  C 4.53240740740741 20.56640625  6.10856481481481 22.28291015625  8.05138888888889 22.28291015625  C 9.99166666666667 22.28291015625  11.5678240740741 20.56640625  11.5678240740741 18.4517578125  L 11.5678240740741 0  L 15.9652777777778 0  C 15.9652777777778 3.54638671875  18.605787037037 6.42041015625  21.8625 6.42041015625  L 21.8625 11.1744140625  Z " fill-rule="nonzero" fill="#d9001b" stroke="none" transform="matrix(1 0 0 1 1516 256 )" />
  </g>
</svg>