<?xml version="1.0" encoding="utf-8"?>
<svg version="1.1" xmlns:xlink="http://www.w3.org/1999/xlink" width="45px" height="25px" xmlns="http://www.w3.org/2000/svg">
  <g transform="matrix(1 0 0 1 -462 -48 )">
    <path d="M 42.203958666332 4.04411764705882  L 42.203958666332 0.0361620057859209  L 36.6531898521816 0.0361620057859209  L 36.6531898521816 4.04411764705882  L 34.3622029431579 4.04411764705882  L 34.3622029431579 6.14151398264224  L 36 6.14151398264224  L 36 22  L 21 22  L 21 10  L 31.3278638987596 10  L 31.3278638987596 7.46745419479267  L 21.0062367075732 7.46745419479267  L 21.0062367075732 3  L 31.9493550283352 3  L 31.9493550283352 0.458052073288332  L 0.588425185928874 0.458052073288332  L 0.588425185928874 3  L 16 3  L 16 22.4927675988428  L 9 22.4927675988428  L 9 4.52627772420444  L 4 4.52627772420444  L 4 22.4927675988428  L 0.0339576095428297 22.4927675988428  L 0.0339576095428297 24.5901639344262  L 44.4888525250657 24.5901639344262  L 44.4888525250657 22.4927675988428  L 42 22.4927675988428  L 42 6.14151398264224  L 44.4888525250657 6.14151398264224  L 44.4888525250657 4.04411764705882  L 42.203958666332 4.04411764705882  Z " fill-rule="nonzero" fill="#ffffff" stroke="none" transform="matrix(1 0 0 1 462 48 )" />
  </g>
</svg>