<?xml version="1.0" encoding="utf-8"?>
<svg version="1.1" xmlns:xlink="http://www.w3.org/1999/xlink" width="14px" height="15px" xmlns="http://www.w3.org/2000/svg">
  <g transform="matrix(1 0 0 1 -509 -54 )">
    <path d="M 12.7247950819672 1.18875639789333  C 12.2127892960463 0.766773607299162  11.5969985535198 0.561484682145241  10.8843418514947 0.561484682145241  L 3.24576904532304 0.561484682145241  C 2.52619334619091 0.561484682145241  1.91732160077148 0.772476077442326  1.4122348119576 1.18875639789333  C 0.907148023143725 1.60503671834434  0.651145130183204 2.11255656108597  0.651145130183204 2.69991098583191  L 0.651145130183204 14.4698093613233  L 13.4858847637416 14.4698093613233  L 13.4858847637416 2.69991098583191  C 13.4858847637416 2.10685409094281  13.2298818707811 1.60503671834434  12.7247950819672 1.18875639789333  Z M 8.06139103182255 2.79115050812254  L 8.06139103182255 12.6051016245086  L 6.17250482160076 12.6051016245086  L 6.17250482160076 2.79115050812254  C 6.17250482160076 2.54594429196647  6.31780376084857 2.42619241896002  6.61532063645128 2.42619241896002  L 7.61857521697203 2.42619241896002  C 7.91609209257474 2.42619241896002  8.06139103182255 2.54594429196647  8.06139103182255 2.79115050812254  Z " fill-rule="nonzero" fill="#ffffff" stroke="none" transform="matrix(1 0 0 1 509 54 )" />
  </g>
</svg>