<?xml version="1.0" encoding="utf-8"?>
<svg version="1.1" xmlns:xlink="http://www.w3.org/1999/xlink" width="22px" height="25px" xmlns="http://www.w3.org/2000/svg">
  <g transform="matrix(1 0 0 1 -509 -48 )">
    <path d="M 21.5769514089789 4.04411764705882  L 21.5769514089789 1.94069431051109  L 21.2568105110897 1.94069431051109  L 21.0574774991964 0.102459016393443  L 18.339300064288 0.102459016393443  L 18.5325926818815 1.94069431051109  L 17.8198261545055 1.94069431051109  L 17.5661295939141 0.0662970106075217  L 12.34722891889 0.0662970106075217  L 12.6069658737812 2  L 0.302682685095906 2  L 0.302682685095906 4  L 12.9331471659702 4  L 14.5821748098146 15.4833654773385  L 12.8002584913747 16.1885245901639  L 12.8002584913747 18.4185149469624  L 14.9083561020036 17.5807618129219  L 15.9775058930676 24.849324975892  L 21.2205681452909 24.849324975892  L 19.8312774563378 15.6099324975892  L 21.4803051001822 14.928881388621  L 21.4803051001822 12.668756027001  L 19.5413385299475 13.4763741562199  L 18.1460074466945 4.04411764705882  L 21.5769514089789 4.04411764705882  Z " fill-rule="nonzero" fill="#ffffff" stroke="none" transform="matrix(1 0 0 1 509 48 )" />
  </g>
</svg>