<?xml version="1.0" encoding="utf-8"?>
<svg version="1.1" xmlns:xlink="http://www.w3.org/1999/xlink" width="219px" height="26px" xmlns="http://www.w3.org/2000/svg">
  <g transform="matrix(1 0 0 1 -240 -48 )">
    <path d="M 198 0.0367130458740873  L 195.211873499226 0.0367130458740873  L 191.029730359148 0.0367130458740873  L 185.73153142509 0.0367130458740873  L 177.477624289394 10.3041282086605  L 169.321831948774 0.140733342517335  L 159.841489874638 0.140733342517335  L 173.479446390083 16.5514648482344  L 173.479446390083 25.3381204940993  L 181.414480441784 25.3381204940993  L 181.414480441784 16.5453460072554  L 191 5.03580612572898  L 191 17.8303026128484  C 191.03586253384 18.9561693529871  191.158506027684 19.9168273866924  191.403793015372 20.7000390320062  C 191.64908000306 21.4893695182991  192.115125279667 22.2175115948019  192.7957966705 22.9028217844515  C 193.500996760103 23.539181246269  194.101949879938 24.0103320016531  194.604788204698 24.3040363686458  C 195.107626529458 24.6038595766175  195.776033570908 24.8241378518621  196.616141503738 24.9709900353584  C 197.456249436569 25.1178422188548  198.627494802779 25.215743674519  200.117613252982 25.2585755613721  C 201.607731703186 25.3014074482252  199.639303626991 25.3197639711622  202.686994449013 25.3197639711622  C 205.753081795111 25.3197639711622  208.034250780608 25.3014074482252  209.512104881427 25.2585755613721  C 210.989958982246 25.215743674519  212.155072173763 25.1178422188548  212.995180106594 24.9709900353584  C 213.835288039425 24.8241378518621  214.497562906182 24.6038595766175  214.975872532174 24.3162740506039  C 215.454182158165 24.0286885245902  216.073531802077 23.5697754511641  216.784864066371 22.8967029434725  C 217.483931981282 22.2358681177389  217.931580733812 21.4832506773201  218.1768677215 20.6939201910272  C 218.422154709188 19.9045897047344  218.544798203032 18.9500505120081  218 17.8241837718694  L 218 0.0367130458740873  L 210 0.0367130458740873  L 210 16.7472677595628  C 210.842786789633 17.236775037884  210.634292850099 17.63449970152  210.217304971029 17.9465605914497  C 209.80031709196 18.2525026404004  209.125777875819 18.4115925058548  208.187555147913 18.4115925058548  L 201.301122968576 18.4115925058548  C 200.430354162284 18.4115925058548  199.780343644912 18.2586214813794  199.369487940534 17.9465605914497  C 198.952500061465 17.640618542499  198.744006121931 17.236775037884  198 16.7472677595628  L 198 0.0367130458740873  Z M 143.161974711865 0.134614501538322  L 154.837635325806 0.13461450153832  L 159.95800119379 6.29628736740598  L 144.032743518157 6.29628736740598  C 143.223296458787 6.29628736740598  142.634607688336 6.42478302796529  142.272809381497 6.6817743490839  C 141.911011074657 6.93876567020251  141.727045833891 7.24470771915324  141 7.6057193369151  L 141 17.6283808605409  C 141.727045833891 18.2219084355054  141.880350201196 18.6135142581623  142.193091110498 18.7909606465537  C 142.499699845108 18.9745258759241  143.112917314327 19.0601896496303  144.032743518157 19.0601896496303  C 145.142667137444 19.0601896496303  145.762016781356 19.0601896496303  153.697050833058 19.0601896496303  C 154.531026591197 19.0601896496303  155.12584753634 18.925575148092  155.487645843179 18.6624649859944  C 155.849444150019 18.3993548238968  156.033409390785 18.0505808880929  156.033409390785 17.6222620195619  L 156.033409390785 14.7464067594251  L 146.528538617881 14.7464067594251  L 146.528538617881 10  L 162.846255473814 10  C 162.846255473814 13.4186182669789  162.846255473814 16.2822358451577  162.846255473814 18.6257519401203  C 162.846255473814 19.6720737475318  162.729744154663 20.5409491665519  162.508985865744 21.2262593562015  C 162.288227576825 21.9176883868301  161.889636221832 22.5601666896267  161.307079626073 23.123100059696  C 160.761316078468 23.6615580658493  160.135834259864 24.0654015704643  159.467427218414 24.3529870964779  C 158.799020176965 24.6405726224916  157.952780069442 24.8547320567571  156.94097124523 24.9893465582955  C 155.929162421017 25.1300799008128  154.690463133194 25.215743674519  153.231005556451 25.2585755613721  C 151.771547979708 25.3014074482252  149.649815536208 25.3197639711622  146.878072575336 25.3197639711622  C 144.106329614463 25.3197639711622  145.896924624584 25.2952886072462  144.443599222534 25.2585755613721  C 142.996405995176 25.215743674519  141.763838882044 25.1239610598338  140.764294407216 24.9893465582955  C 139.758617757696 24.8486132157781  138.943038523634 24.6405726224916  138.299160180953 24.3529870964779  C 137.661414012965 24.0654015704643  137.072725242514 23.6554392248703  136.539226044293 23.123100059696  C 135.901479876305 22.5724043715847  135.459963298467 21.9482825917252  135.226940660163 21.2568535610966  C 134.99391802186 20.5654245304679  134.877406702708 19.6843114294898  134.877406702708 18.6196330991413  C 134.877406702708 16.2761170041787  134.877406702708 12.4273660283786  134.877406702708 7.0611424897828  C 134.877406702708 4.78493364558939  135.558078093542 3.05942048950728  136.925553049902 1.8907218625155  C 138.293028006261 0.72202323552372  140.371835226916 0.134614501538322  143.161974711865 0.134614501538322  Z M 107 25.3809523809524  L 107 6.12495981999357  L 119.136114267841 25  L 130 25  L 130 0  L 123 0  L 123 19.2253983560637  L 110.367104458 0  L 99 0  L 99 25.3809523809524  L 107 25.3809523809524  Z M 54.3374242954043 25.3625958580153  L 62 25.3625958580153  L 62 12.7333080773293  L 62 10.1450383432061  L 62 0  L 55 0  L 55 10.1389195022271  L 40.944754767648 10.1389195022271  L 40.944754767648 9.66164990586399  L 40.944754767648 5.88020618083299  L 40.944754767648 0.0734260917481747  L 34 0.0734260917481747  L 34 19  L 11.7372067087179 19  L 28.3247392511084 6.15555402488865  L 28.3247392511084 0  L 0.429476576308309 0  L 0.429476576308309 6.14943518390963  L 18.335426677521 6.14943518390963  L 0.429476576308309 19.6108853377417  L 0.429476576308309 25  L 33.7639782030864 25  L 33.7639782030864 25.3625958580153  L 40.944754767648 25.3625958580153  L 40.944754767648 15.8110850897736  L 41.9320348930916 15.8110850897736  L 48.4198757174351 15.8110850897736  L 54.3374242954043 15.8110850897736  L 54.3374242954043 25.3625958580153  Z M 94.1597667465259 19  L 73.8622685153567 19  L 73.8622685153567 15  L 94.1658989212181 15  L 94.1658989212181 10.1450383432061  L 83.0911914271119 10.1450383432061  L 73.8622685153567 10.1450383432061  L 67 10.1450383432061  L 67 25.3870712219314  L 66.8163997940234 25.3870712219314  L 74.6471868759578 25  L 94.1597667465259 25  L 94.1597667465259 19  Z M 66.270636246418 5.88020618083299  L 73.8622685153567 5.88020618083299  L 83.0911914271119 6  L 94.1658989212181 6  L 94.1658989212181 0  L 74.65331905065 0  L 66.5956415051043 0  L 66.270636246418 0  L 66.270636246418 5.88020618083299  Z " fill-rule="nonzero" fill="#ffffff" stroke="none" transform="matrix(1 0 0 1 240 48 )" />
  </g>
</svg>